<svg id="Calque_1" data-name="Calque 1" xmlns="http://www.w3.org/2000/svg" viewBox="0 0 474.52 500"><defs><style>.cls-1{fill:#3c3;}.cls-2{fill:#ffde0d;}.cls-3{fill:#fff;}</style></defs><title>Logos</title><path d="M194.37,26.42c.19,1.48.38,2.93.61,4.35C194.76,29.35,194.56,27.9,194.37,26.42Zm.84,5.76q3.63,21.33,13.64,31.9C202.21,57,197.65,46.36,195.21,32.18Zm42,.88A32.16,32.16,0,0,1,244.47,41,30.43,30.43,0,0,0,237.25,33.06Zm26.13,5.45c7.22-12.32,23.27-19.73,47.7-22.11C286.59,18.69,270.6,26.11,263.38,38.51Zm39.21,91.34c-.12-.18-.26-.3-.39-.48C298.37,125,278.13,101.26,274,84.26a3.92,3.92,0,0,1-.21-1.41c-.55-10.5-6.48-16.89-17.67-19a26.59,26.59,0,0,0-9.67-.28,26.61,26.61,0,0,1,9.42.31c11.11,2.15,17.05,8.54,17.67,19,.07.5.14,1,.22,1.41,4,17,24.35,40.75,28.18,45.11a2,2,0,0,0,.39.48c24.71,27.67,34.88,68,27.19,107.78-7.47,39.82-31.94,73.45-65.27,89.9-.19.12-.35.17-.54.3-5.19,2.62-32.81,17.1-43,31.34a6.63,6.63,0,0,0-.72,1.23c-3,6.35-7.44,10.12-13.42,11.29q9.12-1.67,13.67-11.33a7.73,7.73,0,0,1,.72-1.23c10.09-14.25,37.8-28.71,43-31.34a2,2,0,0,1,.55-.29c33.32-16.45,57.8-50.08,65.5-89.86C337.47,197.85,327.3,157.52,302.59,129.85Z"/><path class="cls-1" d="M311.08,16.4c0,29-8,46.88-24.09,53.28C283.21,60,275.48,53,264.45,49.53A56,56,0,0,0,262.07,41c.21-.44.41-.87.63-1.29s.44-.82.68-1.21C270.6,26.11,286.59,18.69,311.08,16.4Z"/><path class="cls-1" d="M247.6,47.48c-12.73.84-22.87,7.83-28.85,20a21.84,21.84,0,0,1-2.28,2.62c-.4-.22-.79-.45-1.18-.69-.78-.49-1.53-1-2.26-1.55-.28-.21-.56-.42-.83-.64-.54-.44-1.07-.89-1.58-1.36l-.77-.73c-.35-.33-.68-.66-1-1q-10-10.55-13.64-31.9c-.08-.46-.16-.92-.23-1.39v0c-.23-1.42-.42-2.87-.61-4.35s-.34-3-.49-4.57c19.41,0,34,3.84,43.37,11.21A30.43,30.43,0,0,1,244.47,41c.28.43.54.87.79,1.32l.57,1a32.38,32.38,0,0,1,1.37,3.06C247.34,46.76,247.47,47.12,247.6,47.48Z"/><path class="cls-2" d="M302.59,129.85c-.12-.18-.26-.3-.39-.48C298.37,125,278.13,101.26,274,84.26a3.92,3.92,0,0,1-.21-1.41c-.55-10.5-6.48-16.89-17.67-19a26.59,26.59,0,0,0-9.67-.28c-.4.06-.79.15-1.17.24q-8.35,2-12.58,11.14c-.25.43-.5.87-.73,1.23a56.31,56.31,0,0,1-8.53,9.07c-.09.06-.1.14-.19.2a1.17,1.17,0,0,1-.3.27c-12.38,10.66-29.86,19.77-33.88,21.82a2.26,2.26,0,0,1-.54.3c-33.25,16.45-57.72,50.08-65.42,89.86s2.47,80.11,27.19,107.78c.11.18.26.3.38.48,3.83,4.37,24.07,28.11,28.19,45.1a4,4,0,0,1,.21,1.42c.55,10.5,6.48,16.89,17.67,19.05a28.75,28.75,0,0,0,8,.51l.76-.09a5.24,5.24,0,0,0,.53-.08l.59-.1q9.12-1.67,13.67-11.33a7.73,7.73,0,0,1,.72-1.23c10.09-14.25,37.8-28.71,43-31.34a2,2,0,0,1,.55-.29c33.32-16.45,57.8-50.08,65.5-89.86C337.47,197.85,327.3,157.52,302.59,129.85Zm1.53,78.69a9.45,9.45,0,0,1-.16,1.19l0,.19c0,.07,0,.14,0,.21s0,.26-.08.38,0,0,0,0a11.31,11.31,0,0,1-.35,1.3,11.77,11.77,0,0,1-.45,1.22,14.55,14.55,0,0,1-1.4,2.65,5.48,5.48,0,0,1-.35.49c-.11.15-.22.31-.35.46a5.54,5.54,0,0,1-.37.45,9.13,9.13,0,0,1-.79.87,10.47,10.47,0,0,1-.84.78l-.44.37a10.5,10.5,0,0,1-1.4,1c-.49.31-1,.58-1.5.84a15,15,0,0,1-4.36,1.36l-.58.07a3.55,3.55,0,0,1-.57.06l-.58,0a13.48,13.48,0,0,1-1.9-.05h0a11.93,11.93,0,0,1-1.3-.18,1.09,1.09,0,0,1-.25,0,2.71,2.71,0,0,1-.41-.09c-.22,0-.44-.1-.66-.17a4.1,4.1,0,0,1-.66-.19,5.53,5.53,0,0,1-.65-.22l-.57-.22a4.41,4.41,0,0,1-.54-.24c-.37-.17-.74-.35-1.09-.55-.18-.1-.35-.19-.52-.3s-.45-.29-.67-.45-.56-.39-.84-.61l-.5-.41-.48-.45a4.89,4.89,0,0,1-.46-.45c-.15-.16-.3-.31-.44-.47-.29-.33-.56-.66-.83-1l-.05-.07c-.23-.33-.46-.66-.67-1a15.17,15.17,0,0,1-1.19-2.3l-.24-.6c-.15-.41-.27-.81-.39-1.23h0c-.11-.43-.21-.86-.29-1.29,0-.21-.07-.43-.1-.65s-.06-.44-.07-.66a15.44,15.44,0,0,1,.23-4.27,16.39,16.39,0,0,1,.83-2.82c.05-.11.09-.21.14-.31a13.08,13.08,0,0,1,.6-1.25s.05-.09.07-.13a15.39,15.39,0,0,1,8.25-7l.61-.2a14.36,14.36,0,0,1,1.63-.4q.56-.1,1.11-.18h0a18.08,18.08,0,0,1,2.45-.08,16.78,16.78,0,0,1,2.19.27c.46.09.91.2,1.34.33a10,10,0,0,1,1,.32,17,17,0,0,1,2.2,1,5.48,5.48,0,0,1,.52.31,14.28,14.28,0,0,1,2.08,1.53,8.05,8.05,0,0,1,.68.63,15.07,15.07,0,0,1,4.48,9.7c0,.19,0,.39,0,.58A13.34,13.34,0,0,1,304.12,208.54ZM157,186.2a2,2,0,0,1,0-.23c0-.21,0-.42,0-.63s0-.42,0-.64v0a14.25,14.25,0,0,1,.08-1.45,1.79,1.79,0,0,1,0-.24c0-.22.05-.43.09-.64a5.81,5.81,0,0,1,.09-.58c0-.07,0-.14.05-.21,0-.27.12-.53.19-.79a15.27,15.27,0,0,1,30,3.36,14.3,14.3,0,0,1,0,2l-.09.73c0,.26-.08.52-.13.78a15.34,15.34,0,0,1-1.52,4.28l0,0a15.27,15.27,0,0,1-28.36-4s0-.06,0-.08v0c-.08-.37-.15-.75-.2-1.14Zm26.56,23.87a8,8,0,0,1,9.27-6.27l69.77,13.5.64.15.13,0,.59.2a4.46,4.46,0,0,1,.55.25c.18.08.37.18.53.27A8,8,0,0,1,269,225.6a3.75,3.75,0,0,1-.05.47,3,3,0,0,1-.08.51,43.44,43.44,0,1,1-85.3-16.51Z"/><circle cx="172.22" cy="184.71" r="15.27" transform="translate(-66.91 265.93) rotate(-65.76)"/><circle cx="288.9" cy="207.22" r="15.27"/><path d="M268.89,226.57a43.45,43.45,0,1,1-85.31-16.5,8,8,0,0,1,9.27-6.27l69.77,13.5A7.89,7.89,0,0,1,268.89,226.57Z"/><path d="M465,221.62c-1.13-.74-15.37-2.23-17-2.67l8.46-3.55c4.49-1.93,6.62-6.7,5-10.66a8.38,8.38,0,0,0-11.19-4.69c-1.87.39-10.46,6.13-11.5,6.75,4.07-12.24,5.67-16.69,5.58-18.05a8.65,8.65,0,0,0-5.09-11.08c-4.45-1.59-8.94.33-11.07,5.09-.22.83-7.17,30.93-7.17,30.93-21.88,13.47-49.78,22.73-74.82,21.47,6.68-42.65-4.77-85.33-31.41-115.46-.14-.11-.19-.28-.33-.38-5.28-6-18.41-22.34-23.45-34.21a47.29,47.29,0,0,0,23.71-18.38C323.9,53.05,328,33.13,326.75,7.49A7.87,7.87,0,0,0,318.44,0c-21,1-37.92,5.23-50.22,12.52a52.68,52.68,0,0,0-15.32,13.4C241.91,14,221.72,4.59,185.14,6.21a7.9,7.9,0,0,0-7.56,8.22,145.38,145.38,0,0,0,3.74,28.23,82.66,82.66,0,0,0,8.42,21.83,52.24,52.24,0,0,0,13.84,16,208.73,208.73,0,0,1-22.21,13.11c-.16,0-.27.19-.45.24-36.68,18.3-63.74,54.77-72.93,98-9.38-20-13.85-44-13.41-65.93,0,0,23.15-21.89,23.76-22.52A8.89,8.89,0,0,0,104.58,92.1c-.62.63-4.37,5-13.13,14.39,0-1.25.63-11.89,0-13.76a8.84,8.84,0,0,0-17.51,2.51l1.87,9.37c-1.25-1.25-10-12.51-11.26-13.76a8.89,8.89,0,0,0-12.5.63c-3.14,3.12-3.14,8.76.62,12.51l23.77,21.89c0,.94,0,1.89,0,2.83C76.43,177.4,89,206,104.61,224c.06,34.3,11.75,67.1,33.34,91.49.14.11.18.28.33.39,5.88,6.7,21.66,26.36,24.85,38.17,1.31,17.43,12.29,29.38,30.4,32.89s32.75-3.5,40.46-19.18c7.36-9.78,29.35-22.13,37.29-26.15a1.44,1.44,0,0,0,.45-.24c32.68-16.35,57.76-47.18,69.3-84.36,17.55,2.53,44.12,3.27,89.41-27.15l30,9.15c4.36.24,9.07-2.52,10.16-6.66C472.17,227.92,469.4,223.22,465,221.62ZM262.7,39.72c.22-.41.44-.82.68-1.21,7.22-12.4,23.21-19.82,47.7-22.11,0,29-8,46.88-24.09,53.28C283.21,60,275.48,53,264.45,49.53A56,56,0,0,0,262.07,41C262.28,40.57,262.48,40.14,262.7,39.72Zm-67.49-7.54c-.08-.46-.16-.92-.23-1.39v0c-.23-1.42-.42-2.87-.61-4.35s-.34-3-.49-4.57c19.41,0,34,3.84,43.37,11.21A30.43,30.43,0,0,1,244.47,41c.28.43.54.87.79,1.32l.57,1a28,28,0,0,1,1.37,3.06c.14.36.27.72.4,1.08-12.73.84-22.87,7.83-28.85,20a21.84,21.84,0,0,1-2.28,2.62c-.4-.22-.79-.45-1.18-.69-.78-.49-1.53-1-2.26-1.55-.28-.21-.56-.42-.83-.64-.54-.43-1.07-.88-1.58-1.36l-.77-.73c-.35-.33-.68-.66-1-1Q198.86,53.54,195.21,32.18Zm69.3,295.35a2,2,0,0,0-.55.29c-5.17,2.63-32.88,17.09-43,31.34a7.73,7.73,0,0,0-.72,1.23q-4.56,9.64-13.67,11.33l-.59.1a5.24,5.24,0,0,1-.53.08l-.76.09a28.49,28.49,0,0,1-8.2-.47c-11.19-2.17-17.05-8.54-17.68-19.06a4.26,4.26,0,0,0-.21-1.42c-4-17-24.35-40.73-28.18-45.1a2.48,2.48,0,0,0-.4-.48c-24.7-27.67-34.88-68-27.18-107.78s32.18-73.4,65.42-89.86c.19-.13.35-.18.54-.3,4-2,21.5-11.15,33.88-21.82a3.79,3.79,0,0,0,.29-.26c.1-.06.19-.13.21-.21a50.17,50.17,0,0,0,8.52-9.07,3.69,3.69,0,0,0,.72-1.23c2.86-6.16,7.16-9.89,12.84-11.17.38-.09.77-.18,1.17-.24a26.59,26.59,0,0,1,9.67.28c11.19,2.16,17.12,8.55,17.67,19a3.92,3.92,0,0,0,.21,1.41c4.12,17,24.36,40.74,28.19,45.11.13.18.27.3.39.48,24.71,27.67,34.88,68,27.42,107.82C322.31,277.45,297.83,311.08,264.51,327.53Z"/><path d="M176,440.83c1.79-1.66,3.45-3.26,5-4.77s2.42-2.43,3.1-3.15a15.6,15.6,0,0,0,2-2.5c.85-1.19,1.78-2.52,2.77-4s2-2.91,3-4.42,1.81-2.73,2.31-3.52a87.27,87.27,0,0,0,6.37-11.25,86.21,86.21,0,0,0,4.31-11.84c1.22-4.24,2.43-8.92,3.58-13.92a39.12,39.12,0,0,0,.66-15.29c-.3-3-.7-5.9-1.19-8.7a48.29,48.29,0,0,0-2.36-8.7c-.49-1.27-1.14-3-1.93-5.13l-2.41-6.46c-.8-2.15-1.49-4-2-5.5-.18-.48-.31-.85-.41-1.11l.15-.5-.76-1.38c-.46-.82-1.06-2-1.82-3.43s-1.64-3.11-2.48-4.63-1.71-3-2.51-4.23c-.62-1-1-1.54-1.1-1.71l-.31-.57-18.45-16.61a8.33,8.33,0,0,0-3-1.78c-.43-.18-.72-.33-.91-.43a1.34,1.34,0,0,1-.26-.16l-.51-.47-.64-.26c-3.48-1.42-6.86-2.75-10.05-4s-6.56-2.33-10.05-3.34a109.6,109.6,0,0,0-27.26-4.1,70.36,70.36,0,0,0-27.61,4.66,80,80,0,0,0-10.24,4.79l-9.28,5.12-.11.07A94.07,94.07,0,0,0,57.22,308.1l-6.34,1.17a6.56,6.56,0,0,0-2.8,1.39c-.22.18-.39.3-.51.39A32.31,32.31,0,0,0,44.7,313c-1.2.9-2.42,1.82-3.63,2.78s-2.27,1.73-3.26,2.43c-1.2.84-1.81,1.31-2.17,1.6a6,6,0,0,0-2.71,3.42L30,327l-3.39,3.44a10.6,10.6,0,0,0-4.07,3.76,15.74,15.74,0,0,0-2.39,4.56L18.19,344l-1.26,1.85a6.1,6.1,0,0,0-3.66,3.72c-.34.9-.63,1.75-.85,2.52l-1.84,6.38-.42,1.6-2.54,8.6,0,.71-.29.5L4.25,383l-.09,1.54a8.28,8.28,0,0,0,0,1.22c0,.6.11,1.29.18,2.06l.35,3.35,0,10.84.57,1.3c0,.17-.07.35-.11.53a5,5,0,0,0,2,5.37l-.32,1.12a8,8,0,0,0-.2,3.35A6.27,6.27,0,0,0,9,417.84l.06,0a5.77,5.77,0,0,0,0,2.55,7.47,7.47,0,0,0,.82,2.33l.26.47a3.9,3.9,0,0,0,1.68,2.16L17.61,435h0a6.36,6.36,0,0,0,1.22,2.79,7.82,7.82,0,0,0,1.63,1.7l1.51,1.7,5.57,5.7L28.78,448a6.12,6.12,0,0,0,4.48,4.88,5,5,0,0,0,1.75.18,4.72,4.72,0,0,0,.63,2.23l.66,1.19.46.42A5.76,5.76,0,0,0,38.54,458l.1.07a4.41,4.41,0,0,1,.44.33l2,1.84,1.17.24c.4,1.38,1.85,1.41,3.15,2.31a7.62,7.62,0,0,0,3.51,1.57l2.55,2.32a11.76,11.76,0,0,0,2.09,1.42,11,11,0,0,0,2.34,1.12l2.29.66.61-.34.76,1a7.25,7.25,0,0,0,2.92,2.35c.39.17.83.33,1.28.48l0,0,8.62,2.48,2.19.62.61,0s.49,0,2.25.14h.19a3.54,3.54,0,0,1,.91.17l1.54.45,1.24-.72,5.59,1.62a14.15,14.15,0,0,0,6.16.43c.59-.1,1.19-.23,1.81-.38l12.91-.68.61,2.32c-.06.41-.12.83-.15,1.28a7.49,7.49,0,0,0,1.13,4.93l-.09,1.44.37,2a6.23,6.23,0,0,0,.9,2.54l1.25,2.27,1.31.72,6.22,2.52a23.82,23.82,0,0,0,3.5.52c2,.23,2.45.34,2.45.33l.6.18.62,0a8.84,8.84,0,0,0,3.35-.75l5.81,1.67a13.09,13.09,0,0,0,9.57-.88,27.71,27.71,0,0,0,2.83-1.3c1.3-.66,2.65-1.41,4.15-2.3q2-1.19,3.87-2.21a19.61,19.61,0,0,0,3.08-1.95l4-3.35c1.11-.12,2.21-.28,3.3-.49a22,22,0,0,0,9.38-4l1-.76.17-.56a4.43,4.43,0,0,0,.55-1.19l.09-1.34-.22-1.19a129.52,129.52,0,0,0-3.4-16.16,107.18,107.18,0,0,0-5.2-14.41c.63-.52,1.36-1.17,2.23-2Q173.33,443.3,176,440.83Zm-14.87,8a97.28,97.28,0,0,1,5.55,15,121.82,121.82,0,0,1,3,14.08,15.76,15.76,0,0,1-4.69,1.63,37.91,37.91,0,0,1-8.42.58,59.65,59.65,0,0,1-8.73-1c-2.92-.57-5.6-1.21-8-1.89l-.47-.13a1.09,1.09,0,0,0-.08-.15,8.86,8.86,0,0,1-.42-.83l-2.29-11.25.39-.21-.47-.14-1.15-5.67-3.19-.92a14.39,14.39,0,0,0-4.48-.24c-.29.06-1,.17-2,.33s-2.12.31-3.38.45l-3.48.37-1.7.19c-.49-.06-1.1-.09-2-.11-1.09,0-2.26,0-3.49,0s-2.29,0-3.32,0a10.7,10.7,0,0,1-1.24-.06,6.56,6.56,0,0,0-2.26,0l-.51.07-7.29-2.1A94,94,0,0,1,58,434.33a23.59,23.59,0,0,0-2.05-2.21c-.75-.73-1.54-1.54-2.34-2.39s-1.57-1.67-2.24-2.38A13.56,13.56,0,0,0,50,426c-.19-.24-.55-.72-1.25-1.69-.87-1.23-1.52-2.21-1.92-2.93-.19-.36-.62-1.08-1.29-2.18s-1.38-2.25-2.23-3.59S41.72,413.14,41,412s-1.21-2-1.57-2.7l-.16-.27a26.21,26.21,0,0,1-3.71-8.83,56.52,56.52,0,0,1-1.4-10.1v-.16A117.57,117.57,0,0,1,34,371.75a84.71,84.71,0,0,1,3.17-17.39,88.5,88.5,0,0,1,14.26-28.87,82.59,82.59,0,0,1,23.87-21.27l9.22-5.09a73.42,73.42,0,0,1,9.29-4.35,63,63,0,0,1,24.68-4.16,101.48,101.48,0,0,1,25.37,3.81c3.29.95,6.47,2,9.45,3.13s6.12,2.39,9.37,3.71a13.75,13.75,0,0,0,2.77,1.49c.41.17.66.29.81.36L183.9,319c.2.32.51.8,1,1.58.69,1.07,1.45,2.34,2.23,3.76s1.62,3,2.38,4.45c.64,1.25,1.19,2.28,1.62,3.09.17.66.46,1.45.84,2.48.56,1.52,1.25,3.36,2,5.52l2.41,6.46,1.94,5.17a39.4,39.4,0,0,1,2,7.31c.47,2.66.85,5.45,1.13,8.29l0,.25a31.73,31.73,0,0,1-.55,12.44c-1.12,4.86-2.29,9.42-3.48,13.53a76.41,76.41,0,0,1-3.92,10.77,78.44,78.44,0,0,1-5.85,10.32c-.52.82-1.26,1.95-2.23,3.4s-2,2.93-2.94,4.34-1.87,2.7-2.7,3.87c-.4.56-.66.91-.81,1.11l-.4.43c-.59.64-1.62,1.7-3.07,3.13s-3.06,3-4.78,4.6-3.38,3.13-4.91,4.52a36.71,36.71,0,0,1-3,2.58l-1.09.77-1.27,4.41Z"/><path class="cls-3" d="M162.87,442.39a36.71,36.71,0,0,0,3-2.58c1.53-1.39,3.17-2.91,4.91-4.52s3.34-3.16,4.78-4.6,2.48-2.49,3.07-3.13l.4-.43c.15-.2.41-.55.81-1.11q1.24-1.75,2.7-3.87c1-1.41,2-2.85,2.94-4.34s1.71-2.58,2.23-3.4a78.44,78.44,0,0,0,5.85-10.32,76.41,76.41,0,0,0,3.92-10.77c1.19-4.11,2.36-8.67,3.48-13.53a31.73,31.73,0,0,0,.55-12.44l0-.25c-.28-2.84-.66-5.63-1.13-8.29a39.4,39.4,0,0,0-2-7.31l-1.94-5.17L194,339.87c-.8-2.16-1.49-4-2-5.52-.38-1-.67-1.82-.84-2.48-.43-.81-1-1.84-1.62-3.09q-1.14-2.2-2.38-4.45c-.78-1.42-1.54-2.69-2.23-3.76-.51-.78-.82-1.26-1-1.58l-17.62-15.87c-.15-.07-.4-.19-.81-.36a13.75,13.75,0,0,1-2.77-1.49c-3.25-1.32-6.4-2.57-9.37-3.71s-6.16-2.18-9.45-3.13a101.48,101.48,0,0,0-25.37-3.81,63,63,0,0,0-24.68,4.16,73.42,73.42,0,0,0-9.29,4.35l-9.22,5.09a82.59,82.59,0,0,0-23.87,21.27,88.5,88.5,0,0,0-14.26,28.87A84.71,84.71,0,0,0,34,371.75a117.57,117.57,0,0,0,.15,18.15v.16a56.52,56.52,0,0,0,1.4,10.1A26.21,26.21,0,0,0,39.28,409l.16.27c.36.65.88,1.55,1.57,2.7s1.47,2.41,2.28,3.68,1.59,2.53,2.23,3.59,1.1,1.82,1.29,2.18c.4.72,1,1.7,1.92,2.93.7,1,1.06,1.45,1.25,1.69a13.56,13.56,0,0,1,1.38,1.32c.67.71,1.42,1.49,2.24,2.38s1.59,1.66,2.34,2.39A23.59,23.59,0,0,1,58,434.33a94,94,0,0,0,39.09,22.43l7.29,2.1.51-.07a6.56,6.56,0,0,1,2.26,0,10.7,10.7,0,0,0,1.24.06c1,0,2.14,0,3.32,0s2.4,0,3.49,0c.85,0,1.46,0,2,.11l1.7-.19,3.48-.37c1.26-.14,2.36-.28,3.38-.45s1.74-.27,2-.33a14.39,14.39,0,0,1,4.48.24l3.19.92,1.15,5.67,0,.21,0,.14,2.29,11.25a8.86,8.86,0,0,0,.42.83,1.09,1.09,0,0,1,.08.15l.47.13c2.37.68,5.05,1.32,8,1.89a59.65,59.65,0,0,0,8.73,1,37.91,37.91,0,0,0,8.42-.58,15.76,15.76,0,0,0,4.69-1.63,121.82,121.82,0,0,0-3-14.08,97.28,97.28,0,0,0-5.55-15l-.6-1.29,1.27-4.41Zm1-41.6c-.47,1.1-1.11,2.41-1.95,4s-1.74,3.13-2.7,4.65a29.92,29.92,0,0,1-3.51,4.52,12.74,12.74,0,0,1-4.83,3.3l-3.15,1.12-1.5-3a93.53,93.53,0,0,1-5.85-14.48,45,45,0,0,0-1.68-4.55l-.31-.49-.21-.68a43.54,43.54,0,0,0-3.12-5.63c-.36-.13-.85-.29-1.53-.48l-5.82-1.68-.67-.19-.25.13-1.25-.36h-.74c-.9.05-1.89.06-3,.06s-1.91,0-2.82,0h-.47l-1,.09-1.25-.09a16.92,16.92,0,0,0-2-.31c-1.36-.16-2.79-.38-4.26-.66l-2.39-.44a11.43,11.43,0,0,0,.61,1.32l.3.54,1.15,6.25c.41,2.2.75,4.19,1,5.91L113,412.26q.75,4.1,1.36,7.6c.39,2.3.67,3.89.84,4.79l.6,3.29-6.4,2-4.84-1.4a72.06,72.06,0,0,1-16.38-7,51.5,51.5,0,0,1-13.77-11.81l-.22-.27L72.28,406c-.4-.71-.82-1.42-1.27-2.15a13.34,13.34,0,0,1-1.23-2.39,20.77,20.77,0,0,1-.9-2.33c-.35-1.05-.61-1.82-.76-2.3l-.11-.46-.09-.48-.06-.17a15.67,15.67,0,0,1-1-1.65,11.62,11.62,0,0,1-1.12-2.53,26.88,26.88,0,0,1-1.3-8.93,78.63,78.63,0,0,1,.67-8.55c.38-2.87.9-5.69,1.53-8.38s1.16-5,1.67-7.29l.06-.21.34-1.19a39.05,39.05,0,0,1,4.65-10.36c1.83-2.86,3.76-5.76,5.72-8.62a32.72,32.72,0,0,1,9.4-8.78A61.51,61.51,0,0,1,101,323.11a63.33,63.33,0,0,1,13.79-3.3,40.32,40.32,0,0,1,13,.35l.29.07,15.55,4.5a22.52,22.52,0,0,1,7.86,5.23c1.8,1.87,3.6,3.8,5.34,5.74a60.83,60.83,0,0,1,6.9,8.67,25.78,25.78,0,0,1,4.15,12c.32,2.44.53,4.44.65,6.1.1,1.5.23,3,.41,4.67s.32,2.9.45,3.91l0,.33a50.18,50.18,0,0,1-.69,10.77,98,98,0,0,1-2.36,10.1Z"/><path d="M168.76,382.15a50.18,50.18,0,0,0,.69-10.77l0-.33c-.13-1-.28-2.31-.45-3.91s-.31-3.17-.41-4.67c-.12-1.66-.33-3.66-.65-6.1a25.78,25.78,0,0,0-4.15-12,60.83,60.83,0,0,0-6.9-8.67c-1.74-1.94-3.54-3.87-5.34-5.74a22.52,22.52,0,0,0-7.86-5.23l-15.55-4.5-.29-.07a40.32,40.32,0,0,0-13-.35,63.33,63.33,0,0,0-13.79,3.3,61.51,61.51,0,0,0-12.58,6.16,32.72,32.72,0,0,0-9.4,8.78c-2,2.86-3.89,5.76-5.72,8.62A39.05,39.05,0,0,0,68.69,357l-.34,1.19-.06.21c-.51,2.26-1.07,4.7-1.67,7.29s-1.15,5.51-1.53,8.38a78.63,78.63,0,0,0-.67,8.55,26.88,26.88,0,0,0,1.3,8.93,11.62,11.62,0,0,0,1.12,2.53,15.67,15.67,0,0,0,1,1.65l.06.17.09.48.11.46c.15.48.41,1.25.76,2.3a20.77,20.77,0,0,0,.9,2.33A13.34,13.34,0,0,0,71,403.89c.45.73.87,1.44,1.27,2.15l1.92,3.48.22.27A51.5,51.5,0,0,0,88.19,421.6a72.06,72.06,0,0,0,16.38,7l4.84,1.4,6.4-2-.6-3.29c-.17-.9-.45-2.49-.84-4.79s-.86-4.87-1.36-7.6l-2.33-12.56c-.25-1.72-.59-3.71-1-5.91l-1.15-6.25-.3-.54a11.43,11.43,0,0,1-.61-1.32l2.39.44c1.47.28,2.9.5,4.26.66a16.92,16.92,0,0,1,2,.31l1.25.09,1-.09h.47c.91,0,1.85,0,2.82,0s2,0,3-.06h.74l1,.17.54.06.67.19,5.82,1.68c.68.19,1.17.35,1.53.48a43.54,43.54,0,0,1,3.12,5.63l.21.68.31.49a45,45,0,0,1,1.68,4.55,93.53,93.53,0,0,0,5.85,14.48l1.5,3,3.15-1.12a12.74,12.74,0,0,0,4.83-3.3,29.92,29.92,0,0,0,3.51-4.52c1-1.52,1.87-3.08,2.7-4.65s1.48-2.91,1.95-4l2.49-8.54A98,98,0,0,0,168.76,382.15Zm-28.17,1.32-.39.11-.85-.44a20.54,20.54,0,0,0-3.68-1.34l-5.82-1.68a12.57,12.57,0,0,0-3.32-.66,14,14,0,0,0-2,0c-.81,0-1.68,0-2.62,0s-2,0-3,0c-.57,0-1.07,0-1.5.08-.62-.12-1.37-.23-2.29-.34-1.18-.13-2.43-.33-3.72-.57l-4-.73c-1.57-.27-2-.38-2-.39l-1.51-.43-5.16,2.16-1.43.64L74.8,392.54l-.14-.26-.44-.81-.29-.25-.45-.78c-.23-.42-.35-.67-.41-.79l-.09-.3a19,19,0,0,1-1-6.52,71.54,71.54,0,0,1,.62-7.74c.34-2.61.81-5.19,1.38-7.65s1.15-5,1.66-7.23l.31-1.08a32.43,32.43,0,0,1,3.75-8.37c1.79-2.79,3.67-5.62,5.59-8.41a22.18,22.18,0,0,1,4.14-4.44l5.34,1.54.6,0c.41,0,1.31,0,2.7-.05a22.13,22.13,0,0,0,2.83-.17,6,6,0,0,0,1.7,0l1.51-.28.18-.1,11.84,3.41,1.16.29a9.86,9.86,0,0,0,2.07,1.3c.27.22.58.46.91.68a8.22,8.22,0,0,0,2.43,1.12l1.64.47.75.87c.18,1.69,1.25,2.09,2.5,3.14a8,8,0,0,0,3,1.63l.2.06.1.46a6.26,6.26,0,0,0,3.31,5.15l.1.11.95,3a7.28,7.28,0,0,0,4.14,4.83l-.1.34a9,9,0,0,0-.35,3.2c0,.62.1,1.3.19,2.07l.4,3.91.29.48.17.55a8.42,8.42,0,0,0-.2,1.91,7.1,7.1,0,0,0,.47,3.57l.65,1.68Z"/><path class="cls-3" d="M92.88,324.67A28,28,0,0,0,91,319.08c-.81-1.77-1.76-3.61-2.81-5.49s-2.25-4.21-3.44-6.77c-2.68-3.62-5.47-7.06-8.28-10.21a74.89,74.89,0,0,0-9.46-8.84,13.26,13.26,0,0,1-1.33-1c-.55-.46-1.14-.93-1.75-1.45s-1.13-.92-1.68-1.33a11.34,11.34,0,0,1-1.37-1.11L50.4,272.36c-.44-.54-1.09-1.42-2-2.68a7.84,7.84,0,0,1-1.78-4.45l0-.65c.21-1.67.46-3.12.73-4.32a8.89,8.89,0,0,1,1.86-3.88,7.33,7.33,0,0,1,3.83-2.31,21.34,21.34,0,0,1,4.88-.45,30.33,30.33,0,0,1,4.71.4A11,11,0,0,1,68,256.34l.21.18c.32.33.77.8,1.35,1.44s1.06,1.12,1.65,1.71,1.17,1.2,1.73,1.81c.22.25.36.39.44.47l.21.1.34.34a6.58,6.58,0,0,1,1,1.59c.3.52.62,1.08,1,1.66.46.77.84,1.45,1.17,2.1,0,0,0,.08,0,.12h.75c.45-.38,1-.85,1.74-1.41,1.16-.92,2.36-1.93,3.57-3s2.46-2.14,3.66-3.13,2-1.65,2.51-2.05A10.79,10.79,0,0,0,90.63,257l.39-.41v-.24a3.42,3.42,0,0,0-.39-1.88,17.1,17.1,0,0,0-2.1-2.47l-.07-.07a107,107,0,0,0-7.67-7.52,41.82,41.82,0,0,0-7.38-5.28A33.83,33.83,0,0,0,65.29,236a41.09,41.09,0,0,0-10-1.11,28.71,28.71,0,0,0-12.73,2.79,52.79,52.79,0,0,0-11.18,7.41l-.9.9a9.84,9.84,0,0,1-.94.87c-1.91,2.76-3.58,5.41-5,7.89a16.71,16.71,0,0,0-1.9,8.25,26.06,26.06,0,0,0,1.22,7.94,38.53,38.53,0,0,0,3.35,7.62,51.77,51.77,0,0,0,4.9,7A73.72,73.72,0,0,0,38,291.85c.16.17.57.56,1.91,1.71,1,.9,2.27,2,3.75,3.37s2.89,2.66,4.48,4.1,3.09,2.79,4.48,4,2.69,2.44,3.74,3.43c1.32,1.26,1.78,1.64,1.93,1.75l.19.15a37.94,37.94,0,0,1,7.76,9.71,25.24,25.24,0,0,1,3.2,12.44v3.72l-.35.63a5.79,5.79,0,0,1-4.44,3,18.33,18.33,0,0,1-9.13-.7,19.38,19.38,0,0,1-4.66-2.8,69.54,69.54,0,0,1-8.4-8.23,85.79,85.79,0,0,0-6.57-6.82l-1,.64-1.8,1.21c-.61.4-1.2.79-1.77,1.15-.27.17-.47.3-.6.4l-.21.21-.41.2a9.71,9.71,0,0,0-1.29.95c-.84.68-1.74,1.37-2.67,2.05a29.08,29.08,0,0,0-2.29,1.8c-1.11.95-1.58,1.29-1.84,1.48a9.62,9.62,0,0,0-.79.85l-.48.54c.18.29.4.65.65,1.11.52,1,.84,1.52,1,1.74a15.24,15.24,0,0,1,.79,2.36c.14.49.24.77.29.93l.57.55v.24l0,0c.5.56,1,1.15,1.64,1.79l1.8,2c.56.62,1,1.11,1.41,1.49l.07.07A114.18,114.18,0,0,0,38,353.75a27.58,27.58,0,0,0,10.23,5.37c1.62.48,3.32.91,5.06,1.3A21.23,21.23,0,0,0,58,361h.84c.63-.1,1.51-.25,2.69-.48s2.59-.52,3.88-.81,2.61-.58,3.77-.82c.94-.21,1.56-.33,2-.38l1.89-.91a22.68,22.68,0,0,0,2.59-1.39l.31-.17,1.51-1,.16-.1,1.57-1c.39-.37,1-.85,1.83-1.51s1.89-1.47,3-2.27,1.93-1.52,2.76-2.27,1.57-1.37,2-1.72a13.25,13.25,0,0,0,3-3.85,23.59,23.59,0,0,0,1.8-4.7v-5.35A35.4,35.4,0,0,0,92.88,324.67Z"/><path d="M98.29,323.47a34,34,0,0,0-2.21-6.7c-.88-1.91-1.9-3.9-3-5.9s-2.18-4.09-3.34-6.62l-.12-.26-.17-.23c-2.84-3.85-5.8-7.5-8.79-10.85a80,80,0,0,0-10.32-9.62l-.24-.18-.18-.1a7.08,7.08,0,0,1-.66-.51l-.52-.42,9.06-8.69h2.32l.81-.81c.18-.17.7-.64,2.16-1.81,1.23-1,2.51-2,3.78-3.16s2.39-2.07,3.54-3,1.94-1.6,2.37-1.94a16.64,16.64,0,0,0,1.94-1.83c.59-.64.94-1,1-1.12l.82-.81v-2.5a8.94,8.94,0,0,0-1.27-4.89,21.91,21.91,0,0,0-2.81-3.34c-2.73-2.93-5.44-5.58-8-7.87a48.93,48.93,0,0,0-8.35-6,39.83,39.83,0,0,0-9.44-3.71,46.81,46.81,0,0,0-11.4-1.28,34.32,34.32,0,0,0-15.16,3.35A57.9,57.9,0,0,0,27.66,241l-1.12,1.11-.4.38-.48.23-.41.58c-1.7,2.44-3.17,3.52-4.5,5.77l-1.23,1.87-3.89,3.34a6.12,6.12,0,0,1-.78.87l-4.58,4.57a16.22,16.22,0,0,0-1.6,2.12c-.65.95-1.09,1.58-1.35,1.92l-.15.2-.12.23a10,10,0,0,1-.75,1.35,5.39,5.39,0,0,0-.88,3.19v.3a14.31,14.31,0,0,0,.12,2.14v1.31l-.6,2.16v9.22l.33,1.53c.07.56.43.16.66.62a8.94,8.94,0,0,1,.43,1l1.55,3.82.24-.25c0,.18,0,.36.06.52a5.3,5.3,0,0,0,1.06,2.53l1.38,1.83h0a4.34,4.34,0,0,0,1.09,2.18,12,12,0,0,0,1.05,1.24l1.48,1.48.39.78a6,6,0,0,0,.89,1.71,8.12,8.12,0,0,0,1,1.3l2,1.9.16-.15,0,.05a4.85,4.85,0,0,0,4.15,3l.34.71a7,7,0,0,0,1.25,1.68c.49.57.86.95,1.09,1.17l.81.8,1.2.43c.08.62.68.76,1.08,1.2a6.38,6.38,0,0,0,.49.62,5,5,0,0,0,1.65,1.37l.57.29.34.23c-.08.06-.35.25-.44.3l-1.25.83-1.67,1.1c-.51.32-.82.53-1,.7a17.44,17.44,0,0,0-2,1.43c-.75.62-1.57,1.24-2.42,1.85S21,325,20.24,325.73c-.95.81-1.25,1-1.31,1.07A10.58,10.58,0,0,0,17,328.64c-.3.35-.48.55-.58.65l-.57.28-.42.83a3.73,3.73,0,0,0-.44,1.69v1.13h-.64l-10.87,11a2.71,2.71,0,0,0-.9,1.08A3.35,3.35,0,0,0,3.32,349,7.75,7.75,0,0,0,5,350.59l.36.42.1.2a5,5,0,0,0,0,1.27v.3a4.75,4.75,0,0,0,3,4.48l1,.42a4.18,4.18,0,0,0,1.85,2.8c.5.34.5.48,1.06.85l.28.39,5,5.44.55.34a6.26,6.26,0,0,0,1.12,1.4,7.57,7.57,0,0,0,.75.68,2.75,2.75,0,0,0,1.12.77l.87.77,5.55,2.75,1,.41a5,5,0,0,0,4.4,2.56H34l1.85.92a7.06,7.06,0,0,0,2.19.56l.14,0,.26.27,1,.27,8,.52A4.55,4.55,0,0,0,50.63,378l.52-.52h5a12,12,0,0,0,2.93-.39,6.73,6.73,0,0,0,3.23-1.77l12-12.19,1.12-.54a30.22,30.22,0,0,0,3.14-1.69c.26-.14.72-.42,1.9-1.18l.15-.11,1.83-1.19.22-.15.19-.19a15.44,15.44,0,0,1,1.54-1.27l2.9-2.24c1.12-.84,2.16-1.7,3.09-2.53s1.54-1.33,1.76-1.49l.17-.15a18.75,18.75,0,0,0,4.39-5.53A28.69,28.69,0,0,0,99,338.61l.09-.33v-6A41.25,41.25,0,0,0,98.29,323.47Zm-4.72,14.12a23.59,23.59,0,0,1-1.8,4.7,13.25,13.25,0,0,1-3,3.85c-.46.35-1.1.9-2,1.72s-1.76,1.51-2.76,2.27-2,1.56-3,2.27-1.44,1.14-1.83,1.51l-1.57,1-.16.1-1.51,1-.31.17A22.68,22.68,0,0,1,73,357.56l-1.89.91c-.43,0-1,.17-2,.38-1.16.24-2.41.52-3.77.82s-2.6.56-3.88.81-2.06.38-2.69.48H58a21.23,21.23,0,0,1-4.65-.54c-1.74-.39-3.44-.82-5.06-1.3A27.58,27.58,0,0,1,38,353.75,114.18,114.18,0,0,1,28.94,345l-.07-.07c-.37-.38-.85-.87-1.41-1.49l-1.8-2c-.6-.64-1.14-1.23-1.64-1.79l0,0v-.24l-.57-.55c-.05-.16-.15-.44-.29-.93a15.24,15.24,0,0,0-.79-2.36c-.11-.22-.43-.79-1-1.74-.25-.46-.47-.82-.65-1.11l.48-.54a9.62,9.62,0,0,1,.79-.85c.26-.19.73-.53,1.84-1.48a29.08,29.08,0,0,1,2.29-1.8c.93-.68,1.83-1.37,2.67-2.05a9.71,9.71,0,0,1,1.29-.95l.41-.2.21-.21c.13-.1.33-.23.6-.4.57-.36,1.16-.75,1.77-1.15L34.9,322l1-.64a85.79,85.79,0,0,1,6.57,6.82,69.54,69.54,0,0,0,8.4,8.23,19.38,19.38,0,0,0,4.66,2.8,18.33,18.33,0,0,0,9.13.7,5.79,5.79,0,0,0,4.44-3l.35-.63v-3.72a25.24,25.24,0,0,0-3.2-12.44,37.94,37.94,0,0,0-7.76-9.71l-.19-.15c-.15-.11-.61-.49-1.93-1.75-1.05-1-2.31-2.15-3.74-3.43s-2.89-2.59-4.48-4-3.08-2.81-4.48-4.1-2.7-2.47-3.75-3.37c-1.34-1.15-1.75-1.54-1.91-1.71a73.72,73.72,0,0,1-5.86-6.28,51.77,51.77,0,0,1-4.9-7,38.53,38.53,0,0,1-3.35-7.62A26.06,26.06,0,0,1,22.65,263a16.71,16.71,0,0,1,1.9-8.25c1.38-2.48,3.05-5.13,5-7.89a9.84,9.84,0,0,0,.94-.87l.9-.9a52.79,52.79,0,0,1,11.18-7.41,28.71,28.71,0,0,1,12.73-2.79,41.09,41.09,0,0,1,10,1.11,33.83,33.83,0,0,1,8.12,3.19,41.82,41.82,0,0,1,7.38,5.28A107,107,0,0,1,88.46,252l.07.07a17.1,17.1,0,0,1,2.1,2.47,3.42,3.42,0,0,1,.39,1.88v.24l-.39.41a10.79,10.79,0,0,1-1.27,1.23c-.51.4-1.35,1.08-2.51,2.05s-2.42,2-3.66,3.13-2.41,2.07-3.57,3c-.72.56-1.29,1-1.74,1.41h-.75s0-.08,0-.12c-.33-.65-.71-1.33-1.17-2.1-.37-.58-.69-1.14-1-1.66a6.58,6.58,0,0,0-1-1.59l-.34-.34-.21-.1c-.08-.08-.22-.22-.44-.47-.56-.61-1.15-1.22-1.73-1.81S70,258.52,69.51,258s-1-1.11-1.35-1.44l-.21-.18A11,11,0,0,0,62.67,254a30.33,30.33,0,0,0-4.71-.4,21.34,21.34,0,0,0-4.88.45,7.33,7.33,0,0,0-3.83,2.31,8.89,8.89,0,0,0-1.86,3.88c-.27,1.2-.52,2.65-.73,4.32l0,.65a7.84,7.84,0,0,0,1.78,4.45c.89,1.26,1.54,2.14,2,2.68L60.92,282.9A11.34,11.34,0,0,0,62.29,284c.55.41,1.12.86,1.68,1.33s1.2,1,1.75,1.45a13.26,13.26,0,0,0,1.33,1,74.89,74.89,0,0,1,9.46,8.84c2.81,3.15,5.6,6.59,8.28,10.21,1.19,2.56,2.34,4.84,3.44,6.77s2,3.72,2.81,5.49a28,28,0,0,1,1.84,5.59,35.4,35.4,0,0,1,.69,7.57Z"/><path class="cls-3" d="M247.37,282a5,5,0,0,0-.32-1.53l-2.17-.06-5.16-.15c-1.85,0-3.61-.1-5.26-.15s-2.78-.08-3.44-.08h-4.34c-1.8,0-3.24,0-4.4-.07a9.85,9.85,0,0,0-2.1.17c0,.45-.11,1.16-.19,2.26-.13,2.08-.14,2.49-.14,2.53s0,.34.13,1.67c.11,1,.23,2,.38,3.14s.27,2.28.38,3.3.15,1.69.16,2.09c.4,4.71.63,9,.68,12.77s.07,8.09.07,12.71l0,12.86a25.91,25.91,0,0,1-5.06,12.4c-2.83,3.57-7.15,5.38-12.81,5.38h-1.13l-.62-.4a8.47,8.47,0,0,0-1.17-.35c-1.58-.39-2-.54-2.16-.58l-.22-.09a16.67,16.67,0,0,1-8.12-6.78,26.92,26.92,0,0,1-3.11-9.6c-.11-.63-.22-1.56-.32-2.79s-.22-2.24-.36-3.33-.29-2.12-.44-3a14,14,0,0,1-.26-2.26c0-.49,0-1.58-.08-3.29s-.12-3.61-.22-5.64-.17-4.06-.23-6-.07-3.31-.07-4.28v-20c-1.91-.26-3.59-.48-5-.63-1.88-.19-3.8-.37-5.69-.52l-4.67-.36c-.2,0-.55-.05-1.48-.18a10.71,10.71,0,0,0-1.36-.12,14.26,14.26,0,0,0-4.14.46,5.58,5.58,0,0,0-.29,2.16v34.84c.11.59.22,1.46.36,2.62a28.38,28.38,0,0,1,.24,2.87s0,.25.13,1.05.19,1.7.25,2.6.11,1.53.2,2.2a14.56,14.56,0,0,1,.17,1.68s0,0,0,.06c0,.2.15.79.51,2.23.41,1.66.85,3.53,1.29,5.55s.93,4.13,1.41,6.09.9,3.66,1.2,4.86l0,.21a19.93,19.93,0,0,0,1,3.55,10.49,10.49,0,0,0,1.54,2.92,56,56,0,0,0,9.53,8.59,76.32,76.32,0,0,0,11.27,6.58,10.7,10.7,0,0,0,2.19.72,11,11,0,0,0,1.87.36h18.38a5.16,5.16,0,0,0,.59-.14l1.6-.37c3.09-1.06,6-2.13,8.61-3.19a18,18,0,0,0,6.66-4.93,49.46,49.46,0,0,0,5.57-8.25,41.34,41.34,0,0,0,3.41-9.14c.2-1,.48-2.32.82-3.94s.67-3.28,1-4.87.58-3.13.84-4.4.3-1.59.32-1.74l0-.34c1.28-7.69,2.26-15.33,2.9-22.72s1-15,1-22.7v-2.17C247.44,283.63,247.42,282.83,247.37,282Z"/><path d="M252.9,281.69a10.39,10.39,0,0,0-.72-3.26,6.29,6.29,0,0,0-2.38-3l-.69-.46h-.84c-.61,0-1.75,0-3.22-.08l-5.18-.15c-1.84,0-3.59-.09-5.24-.15s-2.89-.08-3.61-.08h-4.34c-1.72,0-3.07,0-4.16-.07a19.29,19.29,0,0,0-5,.6l-2.14.5v1.66a3.75,3.75,0,0,0-.57,1.53c-.12.71-.22,1.8-.32,3.32,0,.61-.07,1.09-.1,1.46h-1.74L203,293.17a4.42,4.42,0,0,0-1.39,2.8,13.31,13.31,0,0,0-.18,1.86,4.51,4.51,0,0,0,.29,1.46,4.39,4.39,0,0,0,1.13,1.85l-.07.46-.15.76.64,6.73v.56l.11.37v7.82l-.1.68-.06.66.65,6.91,0,.72v17.38l-1.11,1.09-.55-.15c-1-.24-1.45-.37-1.63-.43a11.19,11.19,0,0,1-5.41-4.4,22,22,0,0,1-2.44-7.7c-.06-.37-.16-1.08-.27-2.41s-.24-2.4-.39-3.57-.31-2.24-.47-3.16-.18-1.33-.18-1.35c0-.5,0-1.66-.08-3.45s-.13-3.68-.23-5.75-.17-4-.22-5.86-.07-3.21-.07-4.13v-23l-2.06-2.06-.91-.13c-2.71-.41-5.07-.71-7-.91s-3.9-.39-5.85-.54l-4.7-.37h-.14l-1-.13a16.34,16.34,0,0,0-2.09-.17,18.79,18.79,0,0,0-6.15.83c-1.89.65-3.07,2.17-3.56,4.56h-1.93L146.31,290a4.81,4.81,0,0,0-1.46,2.81,14.28,14.28,0,0,0-.1,1.7v4.7l-.6.6.4,36.47.2.84v.35l.47.47s0,.06,0,.08a7,7,0,0,0,.57,2.11v1l0,.79-.5,1.48v.45a6.64,6.64,0,0,0,.4,2.32c.16.42.34.89.56,1.41l1.14,2.85v5.34l.52.68.32.38.36,1.26a7,7,0,0,0,1.27,4.17l.68.95v1.48a11.28,11.28,0,0,0,.1,1.66,4.71,4.71,0,0,0,1.47,2.7l.93.93-.1.2v.65a4.64,4.64,0,0,0,3.69,4.62l.35.11,0,1.07.78.8c.08.09.24.26.46.53a4.89,4.89,0,0,0,1.31,1.1l.55.54h1.21l.4.9a4.86,4.86,0,0,0,4.63,3h.23v.77l.81.82a10.54,10.54,0,0,0,1.42,1.13,4.27,4.27,0,0,0,2.49,1,3.05,3.05,0,0,0,1.25-.28,3.56,3.56,0,0,0,2.86,2.63,10.16,10.16,0,0,0,1.89.19h.87l1.06.8a5.28,5.28,0,0,0,2.52,1.06c.28,0,.57.06.87.07l0,0H199.9l1.49-.11,8-2,1.86-.57a13.35,13.35,0,0,0,2.34-.88c.39-.16.89-.38,1.56-.73l.47-.22h.65l13.08-13.34h-.52a24.9,24.9,0,0,0,6.94-5.58l.06-.08a53.82,53.82,0,0,0,6.23-9.25A46.57,46.57,0,0,0,246,348.57l0-.13c.2-1,.47-2.3.82-3.94s.7-3.4,1-5,.57-3.06.81-4.3a24.23,24.23,0,0,0,.42-2.41c1.29-7.78,2.28-15.52,2.93-23s1-15.35,1-23.18v-2.17C253,283.53,253,282.62,252.9,281.69Zm-5.46,4.89c0,7.67-.32,15.31-1,22.7s-1.62,15-2.9,22.72l0,.34c0,.15-.09.58-.32,1.74s-.53,2.73-.84,4.4-.6,3.23-1,4.87-.62,2.94-.82,3.94a41.34,41.34,0,0,1-3.41,9.14,49.46,49.46,0,0,1-5.57,8.25,18,18,0,0,1-6.66,4.93c-2.62,1.06-5.52,2.13-8.61,3.19l-1.6.37a5.16,5.16,0,0,1-.59.14H195.79a11,11,0,0,1-1.87-.36,10.7,10.7,0,0,1-2.19-.72,76.32,76.32,0,0,1-11.27-6.58,56,56,0,0,1-9.53-8.59,10.49,10.49,0,0,1-1.54-2.92,19.93,19.93,0,0,1-1-3.55l0-.21q-.45-1.8-1.2-4.86c-.48-2-1-4-1.41-6.09s-.88-3.89-1.29-5.55c-.36-1.44-.47-2-.51-2.23,0,0,0,0,0-.06a14.56,14.56,0,0,0-.17-1.68c-.09-.67-.16-1.4-.2-2.2s-.15-1.77-.25-2.6-.13-1.05-.13-1.05a28.38,28.38,0,0,0-.24-2.87c-.14-1.16-.25-2-.36-2.62V283.73a5.58,5.58,0,0,1,.29-2.16,14.26,14.26,0,0,1,4.14-.46,10.71,10.71,0,0,1,1.36.12c.93.13,1.28.16,1.48.18l4.67.36c1.89.15,3.81.33,5.69.52,1.43.15,3.11.37,5,.63v20c0,1,0,2.45.07,4.28s.13,3.94.23,6,.17,3.93.22,5.64.08,2.8.08,3.29a14,14,0,0,0,.26,2.26c.15.85.29,1.86.44,3s.26,2.21.36,3.33.21,2.16.32,2.79a26.92,26.92,0,0,0,3.11,9.6,16.67,16.67,0,0,0,8.12,6.78l.22.09c.15,0,.58.19,2.16.58a8.47,8.47,0,0,1,1.17.35l.62.4h1.13c5.66,0,10-1.81,12.81-5.38a25.91,25.91,0,0,0,5.06-12.4l0-12.86c0-4.62,0-8.89-.07-12.71s-.28-8.06-.68-12.77c0-.4-.06-1-.16-2.09s-.23-2.12-.38-3.3-.27-2.16-.38-3.14c-.13-1.33-.13-1.67-.13-1.67s0-.45.14-2.53c.08-1.1.15-1.81.19-2.26a9.85,9.85,0,0,1,2.1-.17c1.16,0,2.6.07,4.4.07H231c.66,0,1.82,0,3.44.08s3.41.11,5.26.15l5.16.15,2.17.06a5,5,0,0,1,.32,1.53c0,.81.07,1.61.07,2.39Z"/><path class="cls-3" d="M274,317.59a7,7,0,0,0-1.73-2.72c-1.17-.9-2.14-1.63-3-2.23a14.32,14.32,0,0,0-2.71-1.49l-.14-.07c-.05,0-.41-.18-1.91-.71a6.48,6.48,0,0,0-1.32-.37l-1.68.2a13.52,13.52,0,0,1-1.74.12,7.53,7.53,0,0,0-.81.05c-.19,0-.79.12-1.8.29l-1.67.28a9.69,9.69,0,0,0-2.28,2,19.45,19.45,0,0,0-2.44,3.33,17.41,17.41,0,0,0-.76,1.79c-.18.45-.28.74-.33.91l1.2,9.59a4.56,4.56,0,0,0,.34.62,8.84,8.84,0,0,0,.76,1.11l.14.18a9.19,9.19,0,0,0,5.3,3.55,19.18,19.18,0,0,0,7.27.56l3.26-.4a6.35,6.35,0,0,0,2-1.14,16.91,16.91,0,0,0,2.73-2.69,18.83,18.83,0,0,0,2.11-3.15,3.1,3.1,0,0,0,.51-1.57l-.48-3.87A25.49,25.49,0,0,0,274,317.59Zm3.9,33.44c-.18-.59-.38-1.41-.61-2.51-.09-.37-.15-.64-.21-.82l-21.62,2.69c.07,1,.13,2,.19,2.95.07,1.38.18,2.78.3,4.19s.24,2.56.37,3.56l1.25,10.12c.35,2.78.82,6.08,1.38,9.8s1.17,7.81,1.79,12,1.24,8.38,1.87,12.53,1.15,7.91,1.62,11.23.85,6,1.16,8.14l.13.87c.19,1.24.3,2,.35,2.36l1.34,5.73q3.45-.31,5.95-.57c2-.19,4.06-.37,6.12-.53s3.67-.3,5-.47l7.33-.91a2.34,2.34,0,0,0,.06-1l-.06-.52Z"/><path d="M283.28,349.89l-.11-.41c-.07-.21-.23-.78-.52-2.12a9.53,9.53,0,0,0-.92-2.76,4.3,4.3,0,0,0-1.34-1.63,3.6,3.6,0,0,0-2.69-.93l-6.6.82.09-.13a19,19,0,0,0,1.38-2.21l2.05-4h-.17a23.9,23.9,0,0,0,2.5-2.62,25.55,25.55,0,0,0,2.73-4.09,8.15,8.15,0,0,0,1.1-4.82l-.48-3.87a30.21,30.21,0,0,0-1.06-5.1,12.23,12.23,0,0,0-3.23-5.16l-.25-.21c-1.28-1-2.34-1.8-3.24-2.46a19.62,19.62,0,0,0-3.72-2.07c-.32-.15-.91-.4-2.45-.95a8.64,8.64,0,0,0-3.74-.66l-1.79.23a9.24,9.24,0,0,1-1.13.07c-.55,0-1,0-1.42.09l-2.06.34c-1,.17-1.66.28-1.94.31l-.44.06-.41.19a13.84,13.84,0,0,0-4.39,3.52,24.47,24.47,0,0,0-3.09,4.28.83.83,0,0,0-.09.16l0-.23-4.11,5.27c-.13.17-.47.59-1.33,1.56a33.76,33.76,0,0,0-2.26,2.81c-.7.94-1.35,1.83-1.94,2.66s-1,1.35-1.25,1.68l-.17.24a10.35,10.35,0,0,0-1.58,6.78l2.45,13.83.85.92c.16.45.7-.22,1,.17a3.84,3.84,0,0,0,3.76,1.68,3.11,3.11,0,0,0,.44-.08,3.54,3.54,0,0,0,3.24,2.44l.83,0-7.2,9.24,1.17,9.47a3.39,3.39,0,0,1,0,.84v.13c0,.57-.06,1.1-.07,1.56a11.89,11.89,0,0,0,.08,1.4l2.42,15.27v.51l4.05,29,.16.69.12.24.94,7.62,0,.4.22.91,2.82,14.48.42.58.29.43a3.15,3.15,0,0,0-.71,2.39l.06.45a6.55,6.55,0,0,0,.68,2.26,3.72,3.72,0,0,0,3.84,1.93l.87.19.32.36.27.79,2.75-.35a16.69,16.69,0,0,0,3.36-.7l.06,0,18.22-2.26,11-14.36,2.15-.27.59-.44a6.25,6.25,0,0,0,2.27-3.13,7.82,7.82,0,0,0,.29-3.39l-.08-.6ZM249.67,319c.05-.17.15-.46.33-.91a17.41,17.41,0,0,1,.76-1.79A19.45,19.45,0,0,1,253.2,313a9.69,9.69,0,0,1,2.28-2l1.67-.28c1-.17,1.61-.27,1.8-.29a7.53,7.53,0,0,1,.81-.05,13.52,13.52,0,0,0,1.74-.12l1.68-.2a6.48,6.48,0,0,1,1.32.37c1.5.53,1.86.69,1.91.71l.14.07a14.32,14.32,0,0,1,2.71,1.49c.82.6,1.79,1.33,3,2.23a7,7,0,0,1,1.73,2.72,25.49,25.49,0,0,1,.85,4.18l.48,3.87a3.1,3.1,0,0,1-.51,1.57,18.83,18.83,0,0,1-2.11,3.15,16.91,16.91,0,0,1-2.73,2.69,6.35,6.35,0,0,1-2,1.14l-3.26.4a19.18,19.18,0,0,1-7.27-.56,9.19,9.19,0,0,1-5.3-3.55l-.14-.18a8.84,8.84,0,0,1-.76-1.11,4.56,4.56,0,0,1-.34-.62Zm42,111.43a2.34,2.34,0,0,1-.06,1l-7.33.91c-1.35.17-3.05.32-5,.47s-4.12.34-6.12.53q-2.5.26-5.95.57l-1.34-5.73c-.05-.33-.16-1.12-.35-2.36l-.13-.87q-.46-3.18-1.16-8.14t-1.62-11.23c-.63-4.15-1.24-8.33-1.87-12.53s-1.22-8.21-1.79-12-1-7-1.38-9.8l-1.25-10.12c-.13-1-.24-2.19-.37-3.56s-.23-2.81-.3-4.19c-.06-1-.12-1.95-.19-2.95L277,347.7c.06.18.12.45.21.82.23,1.1.43,1.92.61,2.51l13.73,78.86Z"/><path class="cls-3" d="M350.18,395.88c.11-.33.37-1,1.37-3.53.92-2.3,1.18-3,1.25-3.23l.14-.34c.14-.27.44-1,.92-2.06s1-2.34,1.47-3.66,1-2.65,1.41-3.81.68-1.77.83-2.11a14.14,14.14,0,0,1,.81-1.86,27.86,27.86,0,0,1,1.7-2.91c.55-.82,1-1.59,1.39-2.29s.69-1.27.84-1.55c.86-1.73,2-4.07,3.46-7s2.94-6,4.48-9c1.45-2.84,2.79-5.53,4-8s1.78-3.59,2.11-4.16.62-1.76,1.63-4.18c.92-2.18,1.89-4.61,2.91-7.22l1.09-2.82,1.74-4.46c1.21-3.14,1.63-4.05,1.85-4.5.13-.27.61-1.19,1.43-2.75.66-1.25,1.08-2.06,1.29-2.47.06-.26.2-.81.4-1.87a15.86,15.86,0,0,0,.28-1.88v-.64l.73-1.46,11.71-23.43c.16-.32.47-1,.95-2.12s.74-1.75.85-2a36.1,36.1,0,0,1,1.25-4c.65-1.8,1.33-3.75,2.06-5.84s1.36-4,1.93-5.9c.49-1.59.88-2.78,1.18-3.6v-.8c0-.66-.13-.92-.88-1.2a12.11,12.11,0,0,0-4-.81H318l-.24,0c-2.42-.43-4.52-.75-6.26-1a48.64,48.64,0,0,0-5.87-.31,24.81,24.81,0,0,0-3.32.29v37h52.63V295a9.94,9.94,0,0,0,.29,1,5.26,5.26,0,0,1,.18,3.62,77.74,77.74,0,0,1-4.81,11.07c-1.85,3.45-3.77,6.89-5.72,10.22s-3.92,6.62-6,10a66.46,66.46,0,0,0-5,10l-.11.28-.17.25a27.29,27.29,0,0,0-1.35,3.15c-.8,2-1.63,4.17-2.5,6.41s-1.75,4.44-2.65,6.51c-1.05,2.47-1.36,3.25-1.43,3.47l-.1.26c-1.74,3.91-3.63,7.91-5.6,11.86s-3.91,7.89-5.75,11.71a225.46,225.46,0,0,0-9.12,22.43c-2.61,7.54-5,15.32-7.16,23.15a7.68,7.68,0,0,1-.3,1.49c-.08.3-.1.44-.11.49a1.31,1.31,0,0,0,.41,1.07,5.1,5.1,0,0,0,2.12,1.11,20.65,20.65,0,0,0,3.68.67c1.35.14,2.57.28,3.61.43h64.84c1.26,0,3.56,0,7-.11s6.94-.18,10.61-.32,7.32-.27,10.7-.34,5.73-.1,7.13-.1a3.2,3.2,0,0,0,1.15-.32V421.14a35.59,35.59,0,0,1-.32-4.18c-.07-1.92-.19-4-.33-6.11s-.25-4.28-.33-6.28c0-1.16-.07-2.16-.09-3l-1.63-.43-.28-.07-.26-.13a6.49,6.49,0,0,0-1.82-.39l-1.81-.2H350.26v-2.21a3.44,3.44,0,0,1-.21-1.2v-.67Z"/><path d="M410.62,252a17.65,17.65,0,0,0-5.83-1.14H318.42c-2.4-.42-4.51-.74-6.28-.95a55.59,55.59,0,0,0-6.53-.35,31.44,31.44,0,0,0-4.2.35c-2.88.41-4.66,2.34-4.66,5v.26l-18.55,18a.51.51,0,0,0-.15.37V308a.55.55,0,0,0,.08.29l.11.51s-.05.35,0,.37l.22,1a6.55,6.55,0,0,1,.27.82l.66,4.9a.53.53,0,0,0,.53.52l18.21-.18h.07l1.11-.14.45-.32H325.6l0-.05,5.64.05a6.89,6.89,0,0,1,1.29.25h.07l1,1.95a.52.52,0,0,1-.1.6L331,321.2a15.15,15.15,0,0,0-2,2.26c-.33.49-.78,1.24-1.41,2.35s-1.22,2.2-1.81,3.39-1.16,2.35-1.67,3.44a22.38,22.38,0,0,0-1.1,2.6l-2.48,7.57c-.16.5-.08.25.32.94l-.09.12-.12.2c-.38.39.24.09-.81,1.07s-1,1.29-2.13,2.37-2.13,2.18-3.11,3.23-1.6,1.71-2,2.09a8.41,8.41,0,0,0-1.4,2.26,15.42,15.42,0,0,1-.92,1.67l-.2.3-.12.34c-.14.42-.42,1.25-.85,2.46a12.36,12.36,0,0,1-.52,1.3.71.71,0,0,1-.1.14l-.48.47a.56.56,0,0,0-.15.37v7a.51.51,0,0,1-.15.36c-.67.69-1.28,1.34-1.84,1.95a20.93,20.93,0,0,0-1.89,2.29c-.32.48-.77,1.23-1.41,2.34s-1.22,2.21-1.81,3.39-1.15,2.35-1.67,3.44a27.33,27.33,0,0,0-1.1,2.6l-1,2.95a.52.52,0,0,0,.49.68l-.61,1.6a5.34,5.34,0,0,1-.89,1.87l-4.13,6a.45.45,0,0,0-.1.14l-.6,1.18a10.13,10.13,0,0,0-.56,1.3,19.08,19.08,0,0,0-1.14,3.07c-.42,1.42-.71,2.34-.85,2.76l-.14.42v6.26a.51.51,0,0,1-.15.37l-3.82,3.82-.29.34a22,22,0,0,0-2.53,5.11,37.72,37.72,0,0,0-1.63,5.54l-1.7,8.48a.5.5,0,0,1-.13.26l-.55.57a3.94,3.94,0,0,0-1.75,2.86,12,12,0,0,1-.36,1.42l-.13.42v.33c0,.12-.1.43-.31,1.14a8.19,8.19,0,0,0-.57,2.46v6.25a.49.49,0,0,1-.15.36l-.63.63a.53.53,0,0,0,0,.74l1.59,1.59a5.73,5.73,0,0,0,3,1.75,8.23,8.23,0,0,0,1.94.44.82.82,0,0,1,.55.12c.46.24.3.14.48.34l0,.14c-.32.33.38.84.84.84H330a5.69,5.69,0,0,0,1.18-.11L331,460h36.34a5.24,5.24,0,0,0,2.79-.79.5.5,0,0,1,.26-.08h20.51a.51.51,0,0,0,.37-.15l.48-.49.28-.06a5.12,5.12,0,0,0,2.74-1.21l17.68-18h-.67a5,5,0,0,0,2.48-4.41V420.65l-.05-.27a25.6,25.6,0,0,1-.28-3.59c-.07-2-.18-4.09-.32-6.27s-.26-4.17-.33-6.12c-.08-2.32-.1-3.53-.1-4.14v-.66l-.3-.59a5.13,5.13,0,0,0-3.38-2.62l-1.84-.48-.06,0a11.64,11.64,0,0,0-3.29-.77c-1.89-.22-2.14-.24-2.38-.24H356.51c.05-.14.11-.28.18-.44.82-2.09,1.14-2.92,1.29-3.33v0c.12-.25.37-.81.94-2.11s1.07-2.53,1.59-4,1-2.63,1.41-3.79c.57-1.51.72-1.85.75-1.9l.29-.59v-.19c.07-.15.18-.39.36-.75a19.87,19.87,0,0,1,1.36-2.31c.64-1,1.18-1.86,1.64-2.71s.76-1.41.92-1.72c.87-1.74,2-4.11,3.49-7.09s2.91-5.91,4.43-8.87,2.84-5.59,4.05-8.11c1.52-3.12,1.9-3.77,2-3.9l.28-.4.12-.49a37.59,37.59,0,0,1,1.49-3.83c.94-2.22,1.93-4.69,3-7.35l1.1-2.81c.6-1.57,1.19-3.06,1.74-4.48,1.05-2.71,1.46-3.67,1.64-4s.6-1.18,1.41-2.73l1.41-2.69.15-.38a22.32,22.32,0,0,0,.63-2.75c.19-1,.28-1.62.33-2.08a.84.84,0,0,1,.05-.17l11.85-23.71.05-.08c.17-.34.51-1.12,1-2.29s.9-2.09,1.07-2.62l.1-.35a27.26,27.26,0,0,1,1.08-3.4q1-2.73,2.08-5.91c.72-2.11,1.4-4.16,2-6.07.69-2.24,1-3.24,1.23-3.7l.19-.49v-1.84A6.55,6.55,0,0,0,410.62,252Zm-1,7.21c-.3.82-.69,2-1.17,3.61-.58,1.86-1.23,3.85-1.94,5.89s-1.4,4-2,5.84a34.82,34.82,0,0,0-1.25,4s0,0,0,.06c-.11.29-.35.87-.84,2s-.79,1.79-.95,2.12L389.7,306.15l-.73,1.46v.65a13.57,13.57,0,0,1-.28,1.88c-.19,1-.32,1.53-.38,1.81a.49.49,0,0,1,0,.11L387,314.48l-1.43,2.75c-.22.44-.63,1.36-1.85,4.49-.55,1.42-1.12,2.91-1.73,4.47l-1.1,2.81c-1,2.61-2,5-2.91,7.22-1,2.36-1.41,3.5-1.61,4.14l0,.09c-.34.58-.91,1.69-2.09,4.12s-2.55,5.16-4,8c-1.53,3-3,6-4.48,9s-2.6,5.31-3.46,7c-.14.28-.41.79-.83,1.54s-.85,1.47-1.4,2.3a27.86,27.86,0,0,0-1.7,2.91,12.14,12.14,0,0,0-.8,1.85c-.15.35-.4.95-.83,2.11s-.91,2.44-1.42,3.82-1,2.55-1.47,3.65-.78,1.79-.92,2.07l-.14.33c-.07.22-.33.94-1.25,3.23-1,2.5-1.25,3.21-1.36,3.54l-.14.42V397a3.31,3.31,0,0,0,.19,1.13.77.77,0,0,1,0,.15v1.62a.52.52,0,0,0,.53.52h51.14l1.78.2a5.94,5.94,0,0,1,1.82.39l.26.12.29.07,1.24.33a.51.51,0,0,1,.39.49c0,.73.05,1.6.08,2.59.08,2,.19,4.11.34,6.27s.25,4.2.32,6.12a35.31,35.31,0,0,0,.32,4.14v13.09a.54.54,0,0,1-.35.5,2.69,2.69,0,0,1-.79.18c-1.41,0-3.87,0-7.13.1s-7,.18-10.71.33-7.25.25-10.6.33-5.76.11-7,.11H307.29c-1-.15-2.24-.29-3.58-.42a22.48,22.48,0,0,1-3.67-.67,5.09,5.09,0,0,1-2.13-1.12,1.27,1.27,0,0,1-.4-1.07,3.06,3.06,0,0,1,.11-.49,7.88,7.88,0,0,0,.29-1.45s0-.05,0-.07c2.14-7.82,4.54-15.59,7.14-23.11a230.55,230.55,0,0,1,9.12-22.44c1.84-3.82,3.77-7.76,5.75-11.71s3.86-7.94,5.6-11.85l.1-.26c.08-.22.38-1,1.44-3.48.89-2.07,1.78-4.26,2.65-6.5s1.69-4.38,2.49-6.41a28.41,28.41,0,0,1,1.35-3.16l.17-.24.11-.28a67,67,0,0,1,5-10c2.08-3.41,4.1-6.79,6-10s3.86-6.76,5.71-10.21a78.24,78.24,0,0,0,4.81-11.07,5.35,5.35,0,0,0-.17-3.63,7.8,7.8,0,0,1-.28-.92.5.5,0,0,1,0-.12V293a.52.52,0,0,0-.52-.52H302.81a.53.53,0,0,1-.52-.52V255.87a.53.53,0,0,1,.46-.52,22.56,22.56,0,0,1,2.86-.22,51,51,0,0,1,5.87.3c1.74.21,3.85.54,6.27,1l.23,0h86.81a12.11,12.11,0,0,1,4,.82c.76.27.88.54.88,1.2Z"/><path class="cls-3" d="M447.49,375.54c-.05-.6-.12-1.2-.22-1.8s-.17-1.17-.22-1.73a11.18,11.18,0,0,1-.08-1.12v-9c-.1-.7-.22-1.72-.37-3.07a5.59,5.59,0,0,0-.38-2l-1.2-.74a28,28,0,0,1-3.15.22c-1.49.06-3.07.08-4.72.08s-3.2,0-4.65-.08a27.56,27.56,0,0,1-3.07-.22,8,8,0,0,1-.83-.08c-.45-.05-1-.12-1.57-.22s-1.17-.17-1.72-.23-.88-.07-1-.07h-.74q-3.46,0-6.6.3t-6.3.3a1.16,1.16,0,0,0-.3-.53c-.2-.24-.25-.42-.15-.52a16.61,16.61,0,0,0,1.35-1.95q1.05-1.65,1.2-1.95,2.4-4.05,4.35-8.17a55.49,55.49,0,0,1,4.64-8q.15-.15.75-.9c.4-.5.8-1,1.21-1.57s.8-1.08,1.19-1.58a6.94,6.94,0,0,0,.75-1.05q2.7-3.88,5.47-7.79a62.18,62.18,0,0,0,4.88-8.1c.49-1,1.2-2.42,2.09-4.27S440,305.9,441,304s1.88-3.69,2.63-5.25,1.22-2.52,1.42-2.92.55-1.48,1.05-2.92.8-2.38.9-2.77V288a2.67,2.67,0,0,0-2.25-3,33,33,0,0,0-4.34-.6,13.12,13.12,0,0,0-2.4-.23c-1.31-.05-2.8-.12-4.5-.22s-3.4-.18-5.1-.22-3.05-.13-4.05-.23h-1.95q-10.78,0-21.66.82a211.4,211.4,0,0,1-21.81.53q-1.65.6-2,1.35-1.5,4.35-2.78,9.21a62.31,62.31,0,0,0-1.72,9.52,2.52,2.52,0,0,0-.15.76v1.79a.58.58,0,0,0,.15.45l1.2.75h28.78a7.13,7.13,0,0,0,.15,1.95c.1.21-.15.86-.74,1.95s-1.38,2.8-2.63,5.4-2.57,5.38-4,8.32-2.75,5.74-4.05,8.4-2.19,4.47-2.69,5.46a10.94,10.94,0,0,1-.6,1.51,6.46,6.46,0,0,0-.61,1.64q-2.1,4.36-4.49,8.63c-1.61,2.85-3.1,5.77-4.5,8.77-1.3,2.6-2.5,5.24-3.6,7.94s-2.3,5.35-3.6,7.95v1.05a1.8,1.8,0,0,0,.68,1.64,4.33,4.33,0,0,0,1.87.61,21.47,21.47,0,0,1,2.47.22c1.16.15,2.37.3,3.68.45l3.67.45a21.47,21.47,0,0,0,2.47.22c2.9.21,5.67.36,8.33.45s5.24.15,7.79.15h32.61c.3,0,.89,0,1.8-.07l2.84-.15c1-.06,2-.13,2.92-.23s1.63-.15,2-.15a17.52,17.52,0,0,1,1.73-.37,9,9,0,0,0,1.57-.37v-3.9C447.57,376.49,447.55,376.13,447.49,375.54Z"/><path d="M447.49,375.54c-.05-.6-.12-1.2-.22-1.8s-.17-1.17-.22-1.73a11.18,11.18,0,0,1-.08-1.12v-9c-.1-.7-.22-1.72-.37-3.07a5.59,5.59,0,0,0-.38-2l-1.2-.74a28,28,0,0,1-3.15.22c-1.49.06-3.07.08-4.72.08s-3.2,0-4.65-.08a27.56,27.56,0,0,1-3.07-.22,8,8,0,0,1-.83-.08c-.45-.05-1-.12-1.57-.22s-1.17-.17-1.72-.23-.88-.07-1-.07h-.74q-3.46,0-6.6.3t-6.3.3a1.16,1.16,0,0,0-.3-.53c-.2-.24-.25-.42-.15-.52a16.61,16.61,0,0,0,1.35-1.95q1.05-1.65,1.2-1.95,2.4-4.05,4.35-8.17a55.49,55.49,0,0,1,4.64-8q.15-.15.75-.9c.4-.5.8-1,1.21-1.57s.8-1.08,1.19-1.58a6.94,6.94,0,0,0,.75-1.05q2.7-3.88,5.47-7.79a62.18,62.18,0,0,0,4.88-8.1c.49-1,1.2-2.42,2.09-4.27S440,305.9,441,304s1.88-3.69,2.63-5.25,1.22-2.52,1.42-2.92.55-1.48,1.05-2.92.8-2.38.9-2.77V288a2.67,2.67,0,0,0-2.25-3,33,33,0,0,0-4.34-.6,13.12,13.12,0,0,0-2.4-.23c-1.31-.05-2.8-.12-4.5-.22s-3.4-.18-5.1-.22-3.05-.13-4.05-.23h-1.95q-10.78,0-21.66.82a211.4,211.4,0,0,1-21.81.53q-1.65.6-2,1.35-1.5,4.35-2.78,9.21a62.31,62.31,0,0,0-1.72,9.52,2.52,2.52,0,0,0-.15.76v1.79a.58.58,0,0,0,.15.45l1.2.75h28.78a7.13,7.13,0,0,0,.15,1.95c.1.21-.15.86-.74,1.95s-1.38,2.8-2.63,5.4-2.57,5.38-4,8.32-2.75,5.74-4.05,8.4-2.19,4.47-2.69,5.46a10.94,10.94,0,0,1-.6,1.51,6.46,6.46,0,0,0-.61,1.64q-2.1,4.36-4.49,8.63c-1.61,2.85-3.1,5.77-4.5,8.77-1.3,2.6-2.5,5.24-3.6,7.94s-2.3,5.35-3.6,7.95v1.05a1.8,1.8,0,0,0,.68,1.64,4.33,4.33,0,0,0,1.87.61,21.47,21.47,0,0,1,2.47.22c1.16.15,2.37.3,3.68.45l3.67.45a21.47,21.47,0,0,0,2.47.22c2.9.21,5.67.36,8.33.45s5.24.15,7.79.15h32.61c.3,0,.89,0,1.8-.07l2.84-.15c1-.06,2-.13,2.92-.23s1.63-.15,2-.15a17.52,17.52,0,0,1,1.73-.37,9,9,0,0,0,1.57-.37v-3.9C447.57,376.49,447.55,376.13,447.49,375.54Zm-2.69,2.72c-.38.07-.69.15-.95.22-.47,0-1.09.07-1.89.15s-1.83.16-2.77.21l-2.86.15c-.83.05-1.38.07-1.65.07H402.07c-2.45,0-5-.05-7.69-.14s-5.38-.25-8.23-.45H386a17.2,17.2,0,0,1-2.12-.2l-3.71-.45-3.64-.45c-1.12-.14-1.94-.22-2.55-.24,1.19-2.43,2.31-4.93,3.34-7.43s2.24-5.22,3.54-7.82c1.36-2.92,2.84-5.81,4.4-8.59s3.17-5.85,4.58-8.77l.27-.57v-.3c.06-.15.17-.42.37-.87.33-.75.54-1.24.67-1.63.51-1,1.38-2.78,2.58-5.24s2.64-5.43,4.06-8.42,2.72-5.72,4-8.31,2.08-4.32,2.58-5.31c.77-1.41,1.36-2.7.95-4a11.33,11.33,0,0,1,0-1.16v-2.76H375.09v-.1l.1-.3,0-.32a58.41,58.41,0,0,1,1.65-9.08c.77-3,1.62-5.81,2.52-8.48h0a211.59,211.59,0,0,0,21.52-.55c7.17-.54,14.39-.81,21.45-.81h1.81c1.06.1,2.4.17,4.1.22s3.36.12,5,.22,3.25.18,4.56.23a14.39,14.39,0,0,1,1.74.13l.23.07.34,0a34.81,34.81,0,0,1,4,.55h0a1.91,1.91,0,0,1,0,.28v1.72c-.1.34-.31,1-.74,2.25s-.78,2.22-1,2.7-.69,1.41-1.38,2.85-1.56,3.17-2.6,5.18-1.94,3.84-2.87,5.76-1.59,3.25-2.09,4.24a58.67,58.67,0,0,1-4.65,7.73c-1.82,2.56-3.68,5.2-5.5,7.83l-.16.28c0,.06-.16.23-.47.61-.43.54-.85,1.09-1.27,1.68s-.76,1-1.13,1.47l-.54.67-.18.18-.14.2a58.27,58.27,0,0,0-4.87,8.41c-1.25,2.65-2.68,5.33-4.23,7.95l-.08.14c-.05.08-.24.41-1.08,1.73-.71,1.12-1,1.47-1,1.55a3,3,0,0,0-.29,3.71l1.41,1.21,1.35.79c2.2,0,4.4-.11,6.56-.32,2-.19,4.14-.28,6.34-.28h.68l.78.06c.48.05,1,.11,1.53.2s1.23.19,1.71.25.68.07.87.07a27.3,27.3,0,0,0,3.24.24c1.45,0,3,.08,4.75.08s3.33,0,4.82-.08c.71,0,1.33-.05,1.85-.09a1.1,1.1,0,0,1,0,.18c.15,1.29.26,2.26.36,3v8.8c0,.31,0,.76.09,1.37s.14,1.28.25,1.93.15,1.06.2,1.57.05.76.06.83Z"/><path d="M450.34,381v-4.43c0-.12,0-.55-.09-1.29s-.14-1.34-.25-2c-.09-.52-.15-1-.2-1.52s-.06-.71-.06-.87v-9l0-.4c-.1-.68-.22-1.67-.36-3-.18-1.59-.41-3.67-2-4.29l-1.72-1.07-1,.16a20.65,20.65,0,0,1-2.78.19c-1.43.06-2.95.08-4.63.08s-3.17,0-4.55-.08a20.48,20.48,0,0,1-2.72-.19l-.38,0c-.1,0-.3,0-.59-.06s-.88-.11-1.43-.21-1.3-.19-1.92-.24c-.82-.07-1.05-.09-1.22-.09h-.75c-2.38,0-4.68.1-6.87.31-.64.06-1.28.12-1.92.16.23-.38.34-.57.41-.7,1.63-2.75,3.11-5.55,4.43-8.34a54.4,54.4,0,0,1,4.32-7.47l.74-.9c.42-.53.85-1.09,1.28-1.68s.74-1,1.12-1.47a10.91,10.91,0,0,0,.94-1.32c1.78-2.57,3.59-5.14,5.37-7.65a63,63,0,0,0,5.09-8.46c.51-1,1.21-2.44,2.11-4.3s1.87-3.78,2.83-5.64c1.05-2.07,1.92-3.8,2.65-5.31s1.2-2.49,1.41-2.88l.09-.23c.22-.53.57-1.51,1.1-3,.7-2,.89-2.68,1-3l.08-.34V288a5.41,5.41,0,0,0-4.47-5.71,38.08,38.08,0,0,0-4.45-.63,16.29,16.29,0,0,0-2.74-.24l-4.44-.22c-1.72-.11-3.46-.19-5.18-.23s-2.92-.12-3.85-.22h-2.23c-7.21,0-14.57.27-21.87.83a208.86,208.86,0,0,1-21.52.52h-.3l-1.12.18-1.52.94a4.87,4.87,0,0,0-1.32,1.32l-13.08,13.08-.21.62c-.12.36-.24.8-.36,1.26a17.44,17.44,0,0,0-.36,1.72l-1,3.82v.67l-.19,1.64a4.6,4.6,0,0,0-1.1,3,7,7,0,0,1-.27,1.28l-.2.49-.34,4.86a5.53,5.53,0,0,0-1,3.32c0,2,1.41,4.11,4.57,4.11h1.46l1.23-.25,1.46,0a8.09,8.09,0,0,0,2,.61,9,9,0,0,0,1.93.29,4,4,0,0,0,1.83-.52l.17-.09H377a18.49,18.49,0,0,0,2.41-.1,3.75,3.75,0,0,0,1.63-.65h6l0,.05c-.42.78-.83,1.58-1.23,2.39s-.82,1.72-1.15,2.54-.54,1.39-.66,1.74l-2.12,6.51c-.68.66-1.33,1.33-1.93,2a19.34,19.34,0,0,0-1.34,1.57,8,8,0,0,0-1.12,2c-.28.68-.6,1.38-.94,2.1s-.7,1.56-1,2.28-.46,1.22-.57,1.55L373,354.14a5.39,5.39,0,0,0-1.08,1.44l-.15.3c0,.06-.1.14-.16.23-.4.57-.82,1.25-1.26,2l-1.2,2.1c-.27.48-.51.9-.7,1.26a3.62,3.62,0,0,0-.81,1.31l-.12,1.69-.54,3.75-.17.26-2.77,3.59a13.74,13.74,0,0,0-1.7,1.93l-.46.69V375c-.08.18-.22.44-.42.84-.49.92-.87,1.6-1.13,2l-.39.66v.38a2.16,2.16,0,0,0-.1.25,5.52,5.52,0,0,0-.5,2.08v4.06l-3.75,3.81v1.73a3.94,3.94,0,0,0,4.12,4.11h1.61l.8-.13.76.09a6.31,6.31,0,0,0,4.17,1.4h.6c.72,0,.69.22,1.59.21l.6.36,2.61.33a16.85,16.85,0,0,0,3.43-.29h9.89l.88,0,.74,0,5.54.08,1.06-.14h9l.67,0,.44.41,2.38.6a10.92,10.92,0,0,0,3.08-.44h10.2l.7,0,.5,0h3.83l.41-.14s.35-.1,1.61-.36l.14,0a2.88,2.88,0,0,1,.67-.06h5.1l1.38,0,.7-.47.27-.07a3.81,3.81,0,0,0,2.4-1.3l11.91-13.26Zm-2.77-.53a9,9,0,0,1-1.57.37,17.52,17.52,0,0,0-1.73.37c-.4,0-1.08.06-2,.15s-1.92.17-2.92.23l-2.84.15c-.91.05-1.5.07-1.8.07H402.07q-3.82,0-7.79-.15c-2.66-.09-5.43-.24-8.33-.45a21.47,21.47,0,0,1-2.47-.22l-3.67-.45c-1.31-.15-2.52-.3-3.68-.45a21.47,21.47,0,0,0-2.47-.22,4.33,4.33,0,0,1-1.87-.61,1.8,1.8,0,0,1-.68-1.64v-1.05q2-3.9,3.6-7.95c1.1-2.7,2.3-5.34,3.6-7.94,1.4-3,2.89-5.92,4.5-8.77s3.09-5.72,4.49-8.63a6.46,6.46,0,0,1,.61-1.64,10.94,10.94,0,0,0,.6-1.51c.5-1,1.39-2.81,2.69-5.46s2.65-5.45,4.05-8.4,2.72-5.72,4-8.32,2.12-4.4,2.63-5.4.84-1.74.74-1.95a7.13,7.13,0,0,1-.15-1.95H373.66l-1.2-.75a.58.58,0,0,1-.15-.45v-1.79a2.52,2.52,0,0,1,.15-.76,62.31,62.31,0,0,1,1.72-9.52q1.27-4.86,2.78-9.21.3-.75,2-1.35a211.4,211.4,0,0,0,21.81-.53q10.86-.82,21.66-.82h1.95c1,.1,2.35.17,4.05.23s3.4.12,5.1.22,3.19.17,4.5.22a13.12,13.12,0,0,1,2.4.23,33,33,0,0,1,4.34.6,2.67,2.67,0,0,1,2.25,3v2.11c-.1.39-.4,1.32-.9,2.77s-.85,2.43-1.05,2.92-.67,1.37-1.42,2.92S442,302,441,304s-2,3.85-2.85,5.7-1.6,3.27-2.09,4.27a62.18,62.18,0,0,1-4.88,8.1q-2.76,3.9-5.47,7.79a6.94,6.94,0,0,1-.75,1.05c-.39.5-.8,1-1.19,1.58s-.81,1.07-1.21,1.57-.65.8-.75.9a55.49,55.49,0,0,0-4.64,8q-2,4.13-4.35,8.17-.15.3-1.2,1.95a16.61,16.61,0,0,1-1.35,1.95c-.1.1-.05.28.15.52a1.16,1.16,0,0,1,.3.53q3.15,0,6.3-.3t6.6-.3h.74c.1,0,.43,0,1,.07s1.12.13,1.72.23,1.12.17,1.57.22a8,8,0,0,0,.83.08,27.56,27.56,0,0,0,3.07.22c1.45.06,3,.08,4.65.08s3.23,0,4.72-.08a28,28,0,0,0,3.15-.22l1.2.74a5.59,5.59,0,0,1,.38,2c.15,1.35.27,2.37.37,3.07v9a11.18,11.18,0,0,0,.08,1.12c.05.56.12,1.13.22,1.73s.17,1.2.22,1.8.08.95.08,1Z"/></svg>