<svg id="Calque_1" data-name="Calque 1" xmlns="http://www.w3.org/2000/svg" viewBox="0 0 590.17 500"><defs><style>.cls-1{fill:#ffde0d;}.cls-2{fill:#3c3;}</style></defs><title>Logos</title><path d="M443.69,476.54,422.1,443.35c17.51-54.46,4.17-96.92-4.36-119.33a189.19,189.19,0,0,0,3.76-37.64c0-56-24.46-108.19-65.54-139.75-.15-.13-.33-.29-.51-.43-7.83-6-27.63-22.79-36.53-36a58.62,58.62,0,0,0,24.45-27.89c8-18.84,8.3-44,.78-74.82A9.78,9.78,0,0,0,332.33.28c-25.27,6.16-44.82,15.26-58.12,27a64.89,64.89,0,0,0-15.52,19.87c-16.19-12-42.93-18.62-87-8.07a9.8,9.8,0,0,0-7.25,11.81h0c6,25.13,15,44.65,26.55,58A65.1,65.1,0,0,0,211.59,125a258.62,258.62,0,0,1-23.86,21.13c-.18.14-.34.28-.51.43-41.07,31.56-65.57,83.76-65.57,139.78a190.93,190.93,0,0,0,3,33.79c-8.3,21.17-24.42,65.43-5.85,123.18L97.22,476.54c-1.83,5.22-.12,11.91,4.54,14.67,4.86,3.51,11.53,1.8,15-3,1.29-1.12,8.09-17.88,9.2-19.75l1.35,11.52c.77,6.13,5.81,10.38,11.2,9.8,6.14-.77,10.38-5.82,9.61-12,.17-2.41-3.79-14.85-4.17-16.33,13.43,9.23,18.28,12.73,19.95,13.09a10.93,10.93,0,0,0,15.23-2.3c3.5-4.85,2.74-11-2.3-15.22-.93-.56-35.05-19.54-35.05-19.54-6.75-24.23-9.16-52-5.1-77.2,11.26,26.15,28.5,49,50.5,65.87.17.15.33.3.51.44,8.75,6.73,32.51,26.91,39.18,40.56C232.58,488,248.8,500,271.57,500s39-12,44.66-32.85c6.69-13.65,30.46-33.83,39.18-40.56.18-.14.35-.29.51-.44a164.4,164.4,0,0,0,48.83-62.1c3.25,24.19.75,50.4-5.67,73.43,0,0-34.11,19-35,19.54-5,4.25-5.81,10.37-2.31,15.22a10.94,10.94,0,0,0,15.24,2.3c1.67-.36,6.52-3.86,19.95-13.09-.38,1.48-4.35,13.92-4.17,16.33-.77,6.13,3.47,11.18,9.61,12,5.38.58,10.42-3.67,11.2-9.8l1.35-11.52c1.11,1.87,7.91,18.63,9.2,19.75,3.5,4.85,10.18,6.56,15,3C443.81,488.45,445.51,481.76,443.69,476.54ZM327.27,21.9c6.86,35.27,1.24,58.89-16.75,70.47-6.86-10.9-18-17.62-32.11-19.2a65.32,65.32,0,0,0-4.9-9.79C278.1,45,296.16,31.08,327.27,21.9ZM186.08,56.05c23.61-4.47,42.18-3.31,55.32,3.41a38.39,38.39,0,0,1,15.94,15.09c-15.25,4-26,14.87-30.37,31.08a37.38,37.38,0,0,1-2.11,3.69C207.71,103.66,194.71,85.8,186.08,56.05ZM343.52,411c-.2.16-.41.32-.6.5-5.66,4.41-35.88,28.53-44.83,48.23a9.63,9.63,0,0,0-.59,1.66c-3.17,12.61-11.89,19-25.91,19s-22.73-6.39-25.91-19a9.63,9.63,0,0,0-.59-1.66c-8.94-19.7-39.18-43.81-44.82-48.23-.2-.18-.4-.34-.61-.5-36.59-27.84-58.42-74.45-58.42-124.63s21.83-96.79,58.42-124.63c.21-.16.4-.33.6-.5,4.39-3.41,23.51-18.62,36-34.49.11-.14.23-.28.34-.44a2.62,2.62,0,0,0,.24-.3,67.2,67.2,0,0,0,8.26-13,9.53,9.53,0,0,0,.59-1.65c3.17-12.61,11.89-19,25.91-19s22.74,6.4,25.91,19a9.53,9.53,0,0,0,.59,1.65c8.94,19.7,39.18,43.82,44.82,48.24l.61.5C380.16,189.62,402,236.22,402,286.41S380.11,383.23,343.52,411Z"/><path class="cls-1" d="M343.57,161.78l-.61-.5c-5.64-4.42-35.88-28.54-44.82-48.24a9.53,9.53,0,0,1-.59-1.65c-3.17-12.61-11.89-19-25.91-19s-22.74,6.4-25.91,19a9.53,9.53,0,0,1-.59,1.65,67.2,67.2,0,0,1-8.26,13,2.62,2.62,0,0,1-.24.3c-.11.16-.23.3-.34.44-12.53,15.87-31.65,31.08-36,34.49-.2.17-.39.34-.6.5-36.59,27.84-58.42,74.44-58.42,124.63S163.07,383.2,199.66,411c.21.16.41.32.61.5,5.64,4.42,35.88,28.53,44.82,48.23a9.63,9.63,0,0,1,.59,1.66c3.18,12.61,11.89,19,25.91,19s22.74-6.39,25.91-19a9.63,9.63,0,0,1,.59-1.66c9-19.7,39.17-43.82,44.83-48.23.19-.18.4-.34.6-.5C380.11,383.23,402,336.59,402,286.41S380.16,189.62,343.57,161.78ZM180.06,276.59a9.79,9.79,0,0,1,0-13.85l6.25-6.25-6.25-6.25c-.08-.08-.17-.15-.25-.24a9.8,9.8,0,0,1,14.1-13.61l6.25,6.25,6.25-6.25a9.8,9.8,0,1,1,13.86,13.85L214,256.49l6.26,6.25a9.81,9.81,0,0,1-13.86,13.88l-6.25-6.28-6.25,6.26A9.8,9.8,0,0,1,180.06,276.59Zm161.66,54.17a9.8,9.8,0,0,1-13.19-4.25c-1.67-2.93-3.54-4.24-4.61-4.24s-2.91,1.3-4.61,4.24c-5.18,8.9-13,14-21.55,14s-16.38-5.09-21.55-14c-1.68-2.93-3.55-4.24-4.62-4.24s-2.91,1.3-4.61,4.24c-5.17,8.9-13,14-21.55,14s-16.38-5.09-21.55-14c-1.68-2.93-3.55-4.24-4.62-4.24s-2.91,1.3-4.61,4.24a9.8,9.8,0,0,1-16.94-9.79c5.17-8.9,13-14,21.55-14s16.38,5.09,21.55,14c1.68,2.93,3.55,4.24,4.62,4.24s2.91-1.31,4.61-4.24c5.17-8.9,13-14,21.55-14s16.38,5.09,21.55,14c1.68,2.93,3.55,4.24,4.62,4.24s2.91-1.31,4.61-4.24c5.17-8.9,13-14,21.55-14s16.38,5.07,21.55,14a6.77,6.77,0,0,1,.5.87A9.78,9.78,0,0,1,341.72,330.76Zm7.54-54.16L343,270.34l-6.25,6.26a9.8,9.8,0,0,1-13.86-13.86l6.26-6.23-6.26-6.25a9.8,9.8,0,1,1,13.86-13.85l6.25,6.25,6.25-6.25a9.79,9.79,0,0,1,13.85,13.85l-6.25,6.25,6.25,6.23a9.8,9.8,0,0,1-13.85,13.86Z"/><path class="cls-2" d="M310.52,92.37c-6.86-10.9-18-17.62-32.11-19.2a65.32,65.32,0,0,0-4.9-9.79C278.1,45,296.16,31.08,327.27,21.9,334.13,57.17,328.51,80.79,310.52,92.37Z"/><path class="cls-2" d="M257.34,74.55c-15.25,4-26,14.87-30.37,31.08a37.38,37.38,0,0,1-2.11,3.69c-17.15-5.66-30.15-23.52-38.78-53.27,23.61-4.47,42.18-3.31,55.32,3.41A38.39,38.39,0,0,1,257.34,74.55Z"/><path d="M363.12,276.6a9.8,9.8,0,0,1-13.86,0L343,270.35l-6.25,6.26a9.8,9.8,0,0,1-13.87-13.86l6.26-6.23-6.26-6.25a9.8,9.8,0,1,1,13.87-13.85l6.25,6.25,6.24-6.25a9.8,9.8,0,0,1,13.86,13.85l-6.25,6.25,6.25,6.23A9.78,9.78,0,0,1,363.12,276.6Z"/><path d="M220.29,276.62a9.81,9.81,0,0,1-13.87,0l-6.25-6.28-6.25,6.26a9.8,9.8,0,1,1-13.85-13.86l6.25-6.25-6.25-6.25-.24-.25a9.79,9.79,0,1,1,14.09-13.6l6.25,6.25,6.25-6.25a9.8,9.8,0,1,1,13.86,13.85L214,256.5l6.26,6.25A9.81,9.81,0,0,1,220.29,276.62Z"/><path d="M341.72,330.77a9.79,9.79,0,0,1-13.18-4.25c-1.68-2.93-3.55-4.24-4.62-4.24s-2.91,1.3-4.61,4.24c-5.17,8.89-13,14-21.55,14s-16.38-5.1-21.55-14c-1.68-2.93-3.55-4.24-4.62-4.24s-2.91,1.3-4.61,4.24c-5.17,8.89-13,14-21.55,14s-16.38-5.1-21.55-14c-1.68-2.93-3.55-4.24-4.61-4.24s-2.91,1.3-4.62,4.24a9.8,9.8,0,0,1-16.94-9.8c5.18-8.89,13-14,21.56-14s16.37,5.1,21.55,14c1.67,2.93,3.54,4.24,4.61,4.24s2.91-1.3,4.61-4.24c5.18-8.89,13-14,21.55-14s16.38,5.1,21.55,14c1.68,2.93,3.55,4.24,4.62,4.24s2.91-1.3,4.61-4.24c5.17-8.89,13-14,21.55-14s16.38,5.08,21.55,14a7,7,0,0,1,.5.87A9.79,9.79,0,0,1,341.72,330.77Z"/></svg>