<svg id="Calque_1" data-name="Calque 1" xmlns="http://www.w3.org/2000/svg" viewBox="0 0 590.17 500"><defs><style>.cls-1{fill:#3c3;}.cls-2{fill:#ffde0d;}.cls-3{fill:#fff;}</style></defs><title>Logos</title><path class="cls-1" d="M305,92.38c-6.86-10.9-18-17.63-32.11-19.2a66.89,66.89,0,0,0-4.9-9.8c4.58-18.38,22.65-32.29,53.76-41.47C328.58,57.17,323,80.79,305,92.38Z"/><path class="cls-1" d="M251.8,74.56c-15.26,4-26,14.86-30.37,31.07a33.59,33.59,0,0,1-2.12,3.69c-17.14-5.66-30.14-23.52-38.77-53.26,23.61-4.47,42.18-3.33,55.32,3.4A38.47,38.47,0,0,1,251.8,74.56Z"/><path class="cls-2" d="M338,161.78c-.21-.16-.41-.32-.61-.5-5.64-4.42-35.88-28.54-44.83-48.23a9.6,9.6,0,0,1-.58-1.66c-3.18-12.62-11.9-19-25.91-19s-22.74,6.38-25.91,19a10.55,10.55,0,0,1-.59,1.66,67,67,0,0,1-8.27,13,3.4,3.4,0,0,1-.23.3,3.65,3.65,0,0,1-.35.43c-12.52,15.88-31.65,31.08-36,34.49-.19.18-.4.34-.6.5-36.59,27.84-58.42,74.45-58.42,124.63S157.53,383.2,194.12,411c.2.16.41.33.6.5,5.65,4.42,35.89,28.54,44.83,48.24a10.16,10.16,0,0,1,.59,1.65c3.17,12.61,11.89,19,25.91,19s22.73-6.4,25.91-19a9.3,9.3,0,0,1,.59-1.65c8.95-19.7,39.17-43.83,44.83-48.24.19-.17.39-.34.6-.5,36.59-27.81,58.47-74.44,58.47-124.63S374.61,189.62,338,161.78Zm-185.85,88.9a43.1,43.1,0,1,1,43.1,43.1A43.1,43.1,0,0,1,152.18,250.68Zm157.21,87.76c-3.92,3.45-8.66,4.48-14,4.48a99.33,99.33,0,0,1-12.55-1.11,130.8,130.8,0,0,0-16.76-1.41,130.65,130.65,0,0,0-16.76,1.41c-10.64,1.37-19.83,2.56-26.59-3.37-3.84-3.38-5.8-8.25-5.8-14.45,0-22.18,23.42-42.37,49.15-42.37s49.14,20.19,49.14,42.37C315.19,330.19,313.32,335,309.39,338.44Zm27.42-44.66a43.1,43.1,0,1,1,43.1-43.1A43.1,43.1,0,0,1,336.81,293.78Z"/><path d="M195.28,207.58a43.1,43.1,0,1,0,43.11,43.1A43.1,43.1,0,0,0,195.28,207.58Zm0,66.62h0a23.51,23.51,0,1,1,23.51-23.51A23.51,23.51,0,0,1,195.28,274.19Z"/><path class="cls-3" d="M195.28,227.17a23.51,23.51,0,0,0,0,47h0a23.52,23.52,0,0,0,0-47Zm12.37,23.53a12.38,12.38,0,1,1-12.37-12.38,12.37,12.37,0,0,1,12.37,12.38Z"/><path d="M207.65,250.68v0a12.38,12.38,0,1,1-12.37-12.38A12.37,12.37,0,0,1,207.65,250.7Z"/><path d="M336.81,207.58a43.1,43.1,0,1,0,43.11,43.1A43.1,43.1,0,0,0,336.81,207.58Zm0,66.62h0a23.51,23.51,0,1,1,23.51-23.51A23.51,23.51,0,0,1,336.81,274.19Z"/><path class="cls-3" d="M336.81,227.17a23.51,23.51,0,1,0,0,47h0a23.52,23.52,0,0,0,0-47Zm12.38,23.52a12.38,12.38,0,1,1-12.38-12.37,12.37,12.37,0,0,1,12.38,12.37Z"/><path d="M349.19,250.68h0a12.38,12.38,0,1,1-12.38-12.37A12.37,12.37,0,0,1,349.19,250.69Z"/><path d="M315.2,324c0,6.2-1.88,11-5.8,14.45s-8.67,4.48-14,4.48a99.49,99.49,0,0,1-12.55-1.11,130.65,130.65,0,0,0-16.76-1.41,130.65,130.65,0,0,0-16.76,1.41c-10.64,1.37-19.83,2.56-26.59-3.37-3.84-3.38-5.8-8.25-5.8-14.45,0-22.18,23.43-42.37,49.15-42.37S315.2,301.81,315.2,324Z"/><path d="M499.63,97.35c-2.63-5.24-9.21-6.77-14.45-4.15-1.63.38-15.12,11.88-16.92,13l4-10.62c2.1-5.68-.35-11.65-5.3-13.58-5.68-2.1-11.65.36-13.74,6-1.26,2-3.43,14.61-3.78,16.07C442,90,439.36,84.79,438.06,83.71a10.71,10.71,0,0,0-14.27-4.88c-5.24,2.64-7.35,8.31-4.89,14.27.56.91,21.62,32.82,21.62,32.82-6.26,29.67-20.65,61-41.48,82.39-11.26-24.4-27.8-45.68-48.62-61.67a5.27,5.27,0,0,0-.51-.43c-7.84-6-27.63-22.8-36.53-36a58.67,58.67,0,0,0,24.44-27.9c8-18.84,8.31-44,.79-74.81A9.8,9.8,0,0,0,326.78.28c-25.26,6.17-44.81,15.26-58.12,27a65.49,65.49,0,0,0-15.51,19.87c-16.2-12-42.94-18.61-87-8.06a9.79,9.79,0,0,0-7.25,11.8h0c6,25.14,15,44.65,26.55,58a65.13,65.13,0,0,0,20.57,16.13,261.43,261.43,0,0,1-23.86,21.13,4.15,4.15,0,0,0-.51.43c-28.69,22-49.3,54.15-59.11,90.6-16.64-26.82-24.65-62.94-24-95.27,0,0,28.65-27.1,29.42-27.87a11,11,0,1,0-17-13.93c-.78.76-5.43,6.19-16.26,17.8,0-1.54.77-14.71,0-17-.77-6.19-6.19-10.06-12.39-9.29S72.25,97.8,73,104l2.31,11.6c-1.54-1.54-12.38-15.47-13.93-17a11,11,0,0,0-15.48.76c-3.87,3.88-3.87,10.85.77,15.49l29.43,27.1c0,1.18,0,2.35,0,3.5,0,66.25,18.85,102.42,40.72,124.3q-.72,8.25-.73,16.64c0,56,24.49,108.21,65.58,139.78.16.15.33.29.51.43,8.74,6.73,32.51,26.92,39.18,40.56C227,488.05,243.25,500,266,500s39-11.95,44.66-32.85c6.69-13.64,30.45-33.83,39.18-40.56.18-.14.34-.28.51-.43C391.45,394.59,416,342.41,416,286.38a189,189,0,0,0-6.74-50.2c17.39-13.39,42.16-35.73,54-105l33.76-19.07C500.89,108.44,502.43,101.86,499.63,97.35ZM321.73,21.91C328.58,57.17,323,80.79,305,92.38c-6.86-10.9-18-17.63-32.11-19.2a66.89,66.89,0,0,0-4.9-9.8C272.55,45,290.62,31.09,321.73,21.91ZM180.54,56.06c23.61-4.47,42.18-3.33,55.32,3.4a38.47,38.47,0,0,1,15.94,15.1c-15.26,4-26,14.86-30.37,31.07a33.59,33.59,0,0,1-2.12,3.69C202.17,103.66,189.17,85.8,180.54,56.06ZM338,411c-.21.16-.41.33-.6.5-5.66,4.41-35.88,28.54-44.83,48.24a9.3,9.3,0,0,0-.59,1.65c-3.18,12.61-11.89,19-25.91,19s-22.74-6.4-25.91-19a10.16,10.16,0,0,0-.59-1.65c-8.94-19.7-39.18-43.82-44.83-48.24-.19-.17-.4-.34-.6-.5C157.53,383.2,135.7,336.6,135.7,286.41s21.83-96.79,58.42-124.63c.2-.16.41-.32.6-.5,4.38-3.41,23.51-18.61,36-34.49a3.65,3.65,0,0,0,.35-.43,3.4,3.4,0,0,0,.23-.3,67,67,0,0,0,8.27-13,10.55,10.55,0,0,0,.59-1.66c3.17-12.62,11.89-19,25.91-19s22.73,6.38,25.91,19a9.6,9.6,0,0,0,.58,1.66c9,19.69,39.19,43.81,44.83,48.23.2.18.4.34.61.5,36.58,27.84,58.42,74.45,58.42,124.63S374.57,383.23,338,411Z"/></svg>