<svg id="Calque_1" data-name="Calque 1" xmlns="http://www.w3.org/2000/svg" viewBox="0 0 590.17 500"><defs><style>.cls-1{fill:#3c3;}.cls-2{fill:#ffde0d;}</style></defs><title>Logos</title><path d="M210,34.06c.24,1.91.49,3.78.79,5.6Q210.33,36.93,210,34.06Zm1.09,7.42q4.68,27.5,17.58,41.13C220.07,73.53,214.2,59.77,211.06,41.48Zm54.18,1.14a41.48,41.48,0,0,1,9.32,10.21A39.07,39.07,0,0,0,265.24,42.62Zm33.69,7c9.31-15.88,30-25.43,61.49-28.5C328.85,24.1,308.24,33.66,298.93,49.64Zm50.54,117.75c-.15-.24-.33-.38-.5-.61-4.93-5.63-31-36.25-36.33-58.16a5,5,0,0,1-.28-1.81C311.66,93.27,304,85,289.58,82.24a34.4,34.4,0,0,0-12.46-.36,34.57,34.57,0,0,1,12.15.4c14.32,2.78,22,11,22.78,24.57.08.64.17,1.27.27,1.81,5.21,21.9,31.4,52.53,36.34,58.16a2.4,2.4,0,0,0,.5.61c31.85,35.67,45,87.67,35,139-9.63,51.33-41.18,94.68-84.14,115.88-.25.17-.46.23-.7.39-6.69,3.38-42.3,22-55.41,40.4a8.09,8.09,0,0,0-.92,1.59q-5.72,12.28-17.31,14.55,11.76-2.15,17.62-14.6a11.65,11.65,0,0,1,.93-1.58c13-18.38,48.73-37,55.4-40.41a3.1,3.1,0,0,1,.71-.38c42.95-21.2,74.51-64.55,84.43-115.83C394.44,255.06,381.33,203.06,349.47,167.39Z"/><path class="cls-1" d="M360.42,21.14c0,37.4-10.34,60.44-31.05,68.69-4.87-12.47-14.85-21.57-29.06-26a71.79,71.79,0,0,0-3.07-11c.27-.56.53-1.11.82-1.66s.56-1.05.87-1.56C308.24,33.66,328.85,24.1,360.42,21.14Z"/><path class="cls-1" d="M278.59,61.21c-16.42,1.08-29.48,10.09-37.19,25.73a27.71,27.71,0,0,1-2.94,3.38c-.51-.29-1-.58-1.52-.9-1-.62-2-1.28-2.92-2-.36-.26-.72-.54-1.06-.81-.7-.57-1.38-1.16-2-1.76-.34-.3-.67-.62-1-.94s-.88-.85-1.29-1.3Q215.76,69,211.06,41.48c-.11-.59-.21-1.19-.3-1.79v0c-.3-1.82-.55-3.69-.79-5.6s-.44-3.88-.63-5.89c25,.06,43.83,4.94,55.9,14.45a39.07,39.07,0,0,1,9.32,10.21q.53.83,1,1.71c.24.44.49.88.72,1.33a41.36,41.36,0,0,1,1.78,4Z"/><path class="cls-2" d="M349.47,167.39c-.15-.24-.33-.38-.5-.61-4.93-5.63-31-36.25-36.33-58.16a5,5,0,0,1-.28-1.81C311.66,93.27,304,85,289.58,82.24a34.4,34.4,0,0,0-12.46-.36c-.51.09-1,.2-1.51.31q-10.77,2.58-16.22,14.36c-.32.56-.63,1.13-.94,1.59a72.43,72.43,0,0,1-11,11.7c-.12.08-.13.18-.25.25a1.65,1.65,0,0,1-.38.35c-16,13.74-38.5,25.49-43.68,28.12a2.72,2.72,0,0,1-.69.39c-42.87,21.21-74.42,64.56-84.35,115.84s3.2,103.28,35.05,139c.16.23.34.38.5.61,4.94,5.63,31,36.24,36.34,58.15a5.26,5.26,0,0,1,.28,1.82c.7,13.54,8.35,21.77,22.77,24.57a37.13,37.13,0,0,0,10.26.65l1-.11.68-.1c.25,0,.51-.08.76-.14q11.76-2.15,17.62-14.6a11.65,11.65,0,0,1,.93-1.58c13-18.38,48.73-37,55.4-40.41a3.1,3.1,0,0,1,.71-.38c42.95-21.2,74.51-64.55,84.43-115.83C394.44,255.06,381.33,203.06,349.47,167.39Zm2,101.45a13.35,13.35,0,0,1-.2,1.53l0,.24c0,.1,0,.19-.05.28a3.72,3.72,0,0,1-.11.48s0,0,0,0a16,16,0,0,1-.45,1.68,16.31,16.31,0,0,1-.58,1.57,18.58,18.58,0,0,1-1.81,3.42,5.35,5.35,0,0,1-.44.62,6.8,6.8,0,0,1-.46.6c-.15.21-.31.4-.47.59a13.13,13.13,0,0,1-1,1.11,12.9,12.9,0,0,1-1.08,1l-.57.48a13.44,13.44,0,0,1-1.81,1.28,18.41,18.41,0,0,1-1.94,1.08,19.08,19.08,0,0,1-5.62,1.76c-.24,0-.49.07-.74.09a4.51,4.51,0,0,1-.73.07l-.75.05a16.78,16.78,0,0,1-2.45-.06h0a16.27,16.27,0,0,1-1.67-.22l-.33-.05a3.41,3.41,0,0,1-.53-.13c-.27-.06-.56-.13-.84-.21a4.89,4.89,0,0,1-.85-.25,8.27,8.27,0,0,1-.84-.28c-.24-.09-.5-.18-.73-.29a7.56,7.56,0,0,1-.71-.3c-.48-.23-1-.46-1.4-.72-.23-.12-.45-.24-.67-.38s-.58-.37-.86-.58-.73-.51-1.09-.79-.43-.35-.64-.53l-.62-.57c-.2-.19-.41-.38-.59-.58s-.39-.41-.57-.62c-.37-.41-.73-.84-1.06-1.28a.32.32,0,0,1-.08-.09c-.29-.42-.59-.85-.86-1.29a20.32,20.32,0,0,1-1.53-3c-.11-.25-.21-.52-.31-.77-.19-.52-.36-1-.5-1.58,0,0,0,0,0,0-.15-.55-.27-1.11-.38-1.66-.05-.27-.09-.56-.13-.84s-.07-.56-.09-.85a20.47,20.47,0,0,1,.29-5.5,20.7,20.7,0,0,1,1.08-3.64l.18-.4c.23-.55.49-1.09.77-1.62l.1-.16a19.77,19.77,0,0,1,10.63-9l.78-.26c.69-.2,1.39-.38,2.1-.52.48-.09,1-.16,1.44-.22h0a21.92,21.92,0,0,1,3.15-.1,21.2,21.2,0,0,1,2.83.34c.59.12,1.17.26,1.73.42a12.46,12.46,0,0,1,1.31.42,20.54,20.54,0,0,1,2.85,1.31c.22.12.44.24.66.38a18.94,18.94,0,0,1,2.68,2,11.25,11.25,0,0,1,.88.82,19.41,19.41,0,0,1,5.77,12.5c0,.24,0,.5.05.74A16.78,16.78,0,0,1,351.45,268.84ZM161.83,240a1,1,0,0,1,0-.29c0-.27,0-.55,0-.81s0-.55,0-.83v0a16.69,16.69,0,0,1,.1-1.86c0-.12,0-.22,0-.32a7.86,7.86,0,0,1,.11-.83c0-.24.07-.5.12-.74a2.14,2.14,0,0,1,.06-.27c.07-.34.15-.68.25-1A19.69,19.69,0,0,1,201,239.88c0,.31-.07.63-.11,1s-.11.66-.17,1a20,20,0,0,1-2,5.51l0,.07a19.69,19.69,0,0,1-36.57-5.18l0-.1h0c-.1-.49-.19-1-.25-1.48C161.88,240.44,161.85,240.23,161.83,240Zm34.23,30.78a10.24,10.24,0,0,1,12-8.08L298,280.13a7.54,7.54,0,0,1,.82.2l.18.05c.25.07.51.16.75.25a5.67,5.67,0,0,1,.72.32c.23.11.47.23.68.35a10.27,10.27,0,0,1,5.09,9.53c0,.2,0,.4-.06.6s-.06.44-.1.66a56,56,0,0,1-110-21.28Z"/><circle cx="181.41" cy="238.12" r="19.69" transform="translate(-110.19 305.8) rotate(-65.76)"/><circle cx="331.83" cy="267.14" r="19.69"/><path d="M306,292.08a56,56,0,1,1-110-21.27A10.23,10.23,0,0,1,208,262.73L298,280.13A10.17,10.17,0,0,1,306,292.08Z"/><path d="M558.78,285.69c-1.46-.95-19.81-2.88-21.95-3.44l10.9-4.58c5.79-2.49,8.54-8.63,6.45-13.74-2.49-5.8-8.63-8.54-14.43-6.05-2.41.51-13.48,7.91-14.83,8.7,5.25-15.77,7.32-21.51,7.2-23.25A11.16,11.16,0,0,0,525.56,229c-5.74-2.06-11.52.42-14.27,6.56-.28,1.07-9.25,39.87-9.25,39.87-28.2,17.36-64.16,29.31-96.45,27.67,8.62-55-6.14-110-40.49-148.83-.18-.14-.24-.37-.43-.5-6.8-7.76-23.72-28.8-30.22-44.09A61.08,61.08,0,0,0,365,86c11.93-17.64,17.22-43.33,15.61-76.37A10.15,10.15,0,0,0,369.92,0C342.85,1.32,321,6.75,305.17,16.16a67.63,67.63,0,0,0-19.75,17.27C271.25,18,245.23,5.92,198.07,8a10.16,10.16,0,0,0-9.74,10.59A187.55,187.55,0,0,0,193.14,55,106.6,106.6,0,0,0,204,83.14a67.1,67.1,0,0,0,17.83,20.59,266.9,266.9,0,0,1-28.63,16.91c-.21.06-.35.24-.58.3-47.28,23.6-82.17,70.62-94,126.32-12.1-25.73-17.86-56.74-17.29-85,0,0,29.84-28.23,30.63-29a11.46,11.46,0,1,0-17.74-14.52c-.8.81-5.64,6.45-16.93,18.55,0-1.62.82-15.33,0-17.74-.8-6.45-6.45-10.48-12.89-9.67s-10.49,6.44-9.68,12.9l2.41,12.09c-1.61-1.61-12.9-16.13-14.51-17.74-4.84-4-11.29-4-16.12.8-4,4-4,11.3.8,16.13L58,162.28c0,1.21,0,2.43,0,3.64,0,62.77,16.25,99.59,36.33,122.89.08,44.22,15.14,86.51,43,118,.17.14.24.35.42.5,7.58,8.64,27.92,34,32,49.21,1.68,22.46,15.84,37.87,39.18,42.39s42.22-4.51,52.16-24.72c9.5-12.6,37.84-28.53,48.08-33.71a2,2,0,0,0,.58-.31C351.83,419,384.16,379.3,399,331.37c22.63,3.26,56.88,4.21,115.26-35l38.63,11.79c5.63.32,11.7-3.24,13.1-8.59C568.08,293.82,564.52,287.76,558.78,285.69ZM298.06,51.2c.28-.53.56-1.05.87-1.56,9.31-16,29.92-25.54,61.49-28.5,0,37.4-10.34,60.44-31.05,68.69-4.87-12.47-14.85-21.57-29.06-26a71.79,71.79,0,0,0-3.07-11C297.51,52.3,297.77,51.75,298.06,51.2Zm-87-9.72c-.11-.59-.21-1.19-.3-1.79v0c-.3-1.82-.55-3.69-.79-5.6s-.44-3.88-.63-5.89c25,.06,43.83,4.94,55.9,14.45a39.07,39.07,0,0,1,9.32,10.21q.53.83,1,1.71c.24.44.49.88.72,1.33a36.92,36.92,0,0,1,1.78,4l.51,1.39c-16.42,1.08-29.48,10.09-37.19,25.73a27.71,27.71,0,0,1-2.94,3.38c-.51-.29-1-.58-1.52-.9-1-.62-2-1.28-2.92-2-.36-.26-.72-.54-1.06-.81-.7-.56-1.38-1.15-2-1.76-.34-.3-.67-.62-1-.94s-.88-.85-1.29-1.3Q215.76,69,211.06,41.48Zm89.33,380.74a3.1,3.1,0,0,0-.71.38c-6.67,3.39-42.38,22-55.4,40.41a11.65,11.65,0,0,0-.93,1.58q-5.88,12.44-17.62,14.6c-.25.06-.51.1-.76.14l-.68.1-1,.11a36.25,36.25,0,0,1-10.57-.61c-14.43-2.8-22-11-22.79-24.57a5.62,5.62,0,0,0-.27-1.82c-5.22-21.89-31.39-52.52-36.33-58.15a2.66,2.66,0,0,0-.51-.61c-31.85-35.67-45-87.67-35-138.95S159.28,160.21,202.13,139c.24-.16.46-.22.7-.39,5.19-2.63,27.72-14.37,43.67-28.12.13-.08.27-.26.38-.34s.25-.16.27-.26a65,65,0,0,0,11-11.69,4.91,4.91,0,0,0,.93-1.6c3.68-7.93,9.23-12.75,16.55-14.4.5-.11,1-.22,1.51-.31a34.4,34.4,0,0,1,12.46.36c14.43,2.79,22.08,11,22.78,24.57a5,5,0,0,0,.28,1.81C318,130.53,344,161.15,349,166.78c.17.23.35.37.5.61,31.86,35.67,45,87.67,35.35,139C374.9,357.67,343.34,401,300.39,422.22Z"/></svg>