<svg id="Calque_1" data-name="Calque 1" xmlns="http://www.w3.org/2000/svg" viewBox="0 0 590.17 500"><defs><style>.cls-1{fill:#3c3;}.cls-2{fill:#ffde0d;}.cls-3{fill:#fff;}</style></defs><title>Logos</title><path class="cls-1" d="M304.12,92.38c-6.85-10.9-18-17.63-32.11-19.2a65.38,65.38,0,0,0-4.89-9.8C271.7,45,289.76,31.09,320.87,21.91,327.73,57.17,322.12,80.79,304.12,92.38Z"/><path class="cls-1" d="M250.94,74.56c-15.25,4-26,14.86-30.36,31.07a36.5,36.5,0,0,1-2.12,3.7c-17.14-5.67-30.14-23.52-38.77-53.27,23.61-4.47,42.18-3.33,55.31,3.4A38.29,38.29,0,0,1,250.94,74.56Z"/><path class="cls-2" d="M337.17,161.78c-.2-.16-.41-.32-.6-.5-5.65-4.42-35.88-28.54-44.83-48.23a10.55,10.55,0,0,1-.59-1.66c-3.17-12.62-11.89-19-25.91-19s-22.73,6.38-25.91,19a9.6,9.6,0,0,1-.58,1.66,67.73,67.73,0,0,1-8.27,13,3.15,3.15,0,0,1-.24.3,3.37,3.37,0,0,1-.34.43c-12.53,15.88-31.65,31.08-36,34.49a5.89,5.89,0,0,1-.6.5c-36.58,27.84-58.42,74.45-58.42,124.63S156.68,383.2,193.26,411c.21.16.42.33.61.5,5.64,4.42,35.88,28.54,44.83,48.24a10.81,10.81,0,0,1,.59,1.65c3.17,12.61,11.89,19,25.91,19s22.73-6.4,25.9-19a10.81,10.81,0,0,1,.59-1.65c9-19.7,39.18-43.83,44.84-48.24a7.57,7.57,0,0,1,.6-.5c36.58-27.81,58.47-74.44,58.47-124.63S373.76,189.62,337.17,161.78Zm-142.74,132a43.1,43.1,0,1,1,43.1-43.1A43.1,43.1,0,0,1,194.43,293.78Zm92.66,27.5H243.3a9.8,9.8,0,0,1,0-19.6h43.79a9.8,9.8,0,0,1,0,19.6ZM336,293.78a43.1,43.1,0,1,1,43.1-43.1A43.1,43.1,0,0,1,336,293.78Z"/><path d="M296.88,311.48a9.8,9.8,0,0,1-9.8,9.8H243.3a9.8,9.8,0,1,1,0-19.59h43.78A9.8,9.8,0,0,1,296.88,311.48Z"/><path d="M194.43,207.58a43.1,43.1,0,1,0,43.1,43.1A43.1,43.1,0,0,0,194.43,207.58Zm0,66.62h0a23.51,23.51,0,1,1,23.51-23.51A23.52,23.52,0,0,1,194.43,274.19Z"/><path class="cls-3" d="M194.43,227.17a23.51,23.51,0,0,0,0,47h0a23.52,23.52,0,0,0,0-47Zm12.36,23.53a12.38,12.38,0,1,1-12.36-12.38,12.37,12.37,0,0,1,12.36,12.38Z"/><path d="M206.79,250.68v0a12.38,12.38,0,1,1-12.36-12.38A12.37,12.37,0,0,1,206.79,250.7Z"/><path d="M336,207.58a43.1,43.1,0,1,0,43.1,43.1A43.11,43.11,0,0,0,336,207.58Zm0,66.62h0a23.51,23.51,0,1,1,23.51-23.51A23.52,23.52,0,0,1,336,274.19Z"/><path class="cls-3" d="M336,227.17a23.51,23.51,0,1,0,0,47h0a23.52,23.52,0,0,0,0-47Zm12.37,23.52A12.38,12.38,0,1,1,336,238.32a12.37,12.37,0,0,1,12.37,12.37Z"/><path d="M348.33,250.68h0A12.38,12.38,0,1,1,336,238.32,12.37,12.37,0,0,1,348.33,250.69Z"/><path d="M444.93,467.42l-21.65-33.63c.3-1.14.6-2.26.89-3.39,17.1-65.82,7-105.95-9.41-132.64.22-3.77.34-7.57.34-11.38,0-56-24.46-108.18-65.53-139.74-.16-.15-.34-.3-.51-.43-7.84-6-27.64-22.8-36.53-36A58.72,58.72,0,0,0,337,82.28c8-18.84,8.31-44,.78-74.81A9.79,9.79,0,0,0,325.93.28c-25.26,6.17-44.82,15.26-58.12,27a65,65,0,0,0-15.52,19.86c-16.19-12-42.93-18.61-87-8.06a9.78,9.78,0,0,0-7.25,11.8h0c6,25.14,15,44.65,26.54,58a65.28,65.28,0,0,0,20.58,16.13,263.07,263.07,0,0,1-23.87,21.13,6.47,6.47,0,0,0-.51.43c-39.36,30.24-63.49,79.42-65.44,132.77-18.76,11.41-45.66,31-65,98.12L14.74,392.72c-4.33,3.24-6.6,9.61-4.31,14.4,2,5.49,8.39,7.75,13.89,5.73,1.66-.21,16.35-10.13,18.26-11l-5.19,10.11c-2.72,5.4-.94,11.61,3.77,14.07,5.41,2.73,11.61.94,14.33-4.46,1.47-1.87,5-14.16,5.52-15.57,5.89,14.84,7.93,20.34,9.08,21.55A10.73,10.73,0,0,0,83.74,434c5.49-2,8.22-7.44,6.43-13.65-.45-1-17.82-35-17.82-35,8.72-26.42,24.41-53.46,44.75-72.37,6.42,45.67,29.21,86.72,63.72,113.24l.51.43c8.75,6.73,32.52,26.92,39.19,40.56,5.66,20.9,21.88,32.85,44.66,32.85s39-11.95,44.65-32.85c6.7-13.64,30.46-33.83,39.19-40.56l.51-.43c26.28-20.2,45.77-48.84,56.41-81.52,5.1,26.93,3,57.28-4.4,83.5,0,0-34.55,19-35.49,19.57a11,11,0,0,0,13,17.78c1-.55,6.81-4.63,20.22-13.15-.38,1.5-4.45,14.05-4.28,16.49-.81,6.19,3.46,11.3,9.65,12.11s11.3-3.46,12.11-9.65l.67-11.82c1.11,1.88,8.1,18.1,9.21,20a11,11,0,0,0,15.17,3.14C446.51,479.83,448.26,473.08,444.93,467.42ZM320.87,21.91c6.86,35.26,1.25,58.88-16.75,70.47-6.85-10.9-18-17.63-32.11-19.2a65.38,65.38,0,0,0-4.89-9.8C271.7,45,289.76,31.09,320.87,21.91ZM179.69,56.06c23.61-4.47,42.18-3.33,55.31,3.4a38.29,38.29,0,0,1,15.94,15.1c-15.25,4-26,14.86-30.36,31.07a36.5,36.5,0,0,1-2.12,3.7C201.32,103.66,188.32,85.81,179.69,56.06ZM337.13,411a7.57,7.57,0,0,0-.6.5c-5.66,4.41-35.88,28.54-44.84,48.24a10.81,10.81,0,0,0-.59,1.65c-3.17,12.61-11.89,19-25.9,19s-22.74-6.4-25.91-19a10.81,10.81,0,0,0-.59-1.65c-8.95-19.7-39.19-43.82-44.83-48.24-.19-.17-.4-.34-.61-.5-36.58-27.84-58.42-74.44-58.42-124.63s21.84-96.79,58.42-124.63a5.89,5.89,0,0,0,.6-.5c4.39-3.41,23.51-18.61,36-34.49a3.37,3.37,0,0,0,.34-.43,3.15,3.15,0,0,0,.24-.3,67.73,67.73,0,0,0,8.27-13,9.6,9.6,0,0,0,.58-1.66c3.18-12.62,11.9-19,25.91-19s22.74,6.38,25.91,19a10.55,10.55,0,0,0,.59,1.66c8.95,19.69,39.18,43.81,44.83,48.23.19.18.4.34.6.5,36.59,27.84,58.43,74.45,58.43,124.63S373.71,383.23,337.13,411Z"/></svg>