<svg id="Calque_1" data-name="Calque 1" xmlns="http://www.w3.org/2000/svg" viewBox="0 0 590.17 500"><defs><style>.cls-1{fill:#ffde0d;}.cls-2{fill:#3c3;}</style></defs><title>Logos</title><path d="M446.33,475.84l-21.59-33.19c17.44-54.26,4.27-96.6-4.27-119.09a189.18,189.18,0,0,0,3.67-37.18c0-56-24.46-108.18-65.54-139.74-.15-.15-.33-.3-.5-.44-7.84-6-27.64-22.79-36.53-36A58.76,58.76,0,0,0,346,82.28c8-18.84,8.3-44,.78-74.81A9.78,9.78,0,0,0,335,.28c-25.27,6.17-44.82,15.26-58.12,27a65.13,65.13,0,0,0-15.52,19.87c-16.19-12-42.93-18.61-87-8.06a9.78,9.78,0,0,0-7.25,11.8h0c6,25.14,15,44.65,26.54,58a65.42,65.42,0,0,0,20.57,16.13,264.48,264.48,0,0,1-23.86,21.13,6.47,6.47,0,0,0-.51.43c-41.07,31.56-65.57,83.75-65.57,139.77a190.41,190.41,0,0,0,2.84,32.8c-8.51,23-20.19,64.29-3.35,116.67L102.19,469c-1.83,5.22-.12,11.9,4.53,14.67,4.87,3.5,11.54,1.79,15-3.06,1.29-1.11,8.08-17.88,9.19-19.74l1.36,11.51c.77,6.13,5.81,10.39,11.19,9.8,6.15-.77,10.39-5.81,9.62-11.94.17-2.42-3.79-14.85-4.18-16.34,13.43,9.23,18.28,12.73,20,13.1a10.93,10.93,0,0,0,15.23-2.31c3.5-4.85,2.73-11-2.31-15.22-.93-.56-35-19.53-35-19.53a190.22,190.22,0,0,1-6.36-67.25c11.28,25.13,28.12,47,49.43,63.43l.51.43c8.75,6.73,32.51,26.92,39.19,40.56,5.66,20.9,21.88,32.85,44.65,32.85s39-11.95,44.66-32.85c6.69-13.64,30.46-33.83,39.19-40.56l.51-.43c21-16.12,37.62-37.61,48.89-62.25,3.14,24,.63,50-5.73,72.87,0,0-34.12,19-35.05,19.53-5,4.25-5.8,10.38-2.3,15.23a10.94,10.94,0,0,0,15.23,2.3c1.67-.37,6.52-3.87,19.95-13.09-.38,1.48-4.34,13.91-4.17,16.33-.77,6.13,3.47,11.18,9.61,11.95,5.38.58,10.43-3.67,11.2-9.81l1.35-11.51c1.11,1.86,7.91,18.63,9.2,19.75,3.51,4.84,10.18,6.55,15,3.05C446.45,487.74,448.15,481.06,446.33,475.84ZM329.91,21.91c6.86,35.26,1.25,58.88-16.75,70.47-6.85-10.91-18-17.64-32.11-19.2a65,65,0,0,0-4.9-9.8C280.74,45,298.8,31.08,329.91,21.91ZM188.73,56.05c23.6-4.46,42.18-3.32,55.31,3.41A38.29,38.29,0,0,1,260,74.56c-15.25,4-26,14.86-30.37,31.07a38.57,38.57,0,0,1-2.11,3.69C210.36,103.66,197.36,85.8,188.73,56.05ZM346.16,411a5.57,5.57,0,0,0-.59.5c-5.67,4.41-35.89,28.54-44.84,48.24a10.44,10.44,0,0,0-.59,1.65c-3.17,12.61-11.89,19-25.91,19s-22.73-6.4-25.91-19a9.5,9.5,0,0,0-.58-1.65c-9-19.7-39.19-43.82-44.83-48.24-.2-.17-.4-.34-.61-.5-36.58-27.84-58.42-74.44-58.42-124.63s21.84-96.79,58.42-124.63a7.22,7.22,0,0,0,.6-.5c4.39-3.41,23.51-18.61,36-34.49.12-.14.23-.28.34-.43l.24-.31a68.14,68.14,0,0,0,8.27-13,10.22,10.22,0,0,0,.58-1.66c3.18-12.62,11.89-19,25.91-19s22.74,6.38,25.91,19a11.32,11.32,0,0,0,.59,1.66c8.94,19.69,39.18,43.81,44.83,48.23.19.18.4.34.6.5,36.59,27.84,58.43,74.45,58.43,124.63S382.75,383.23,346.16,411Z"/><path class="cls-1" d="M346.21,161.78c-.2-.16-.41-.32-.6-.5-5.65-4.42-35.89-28.54-44.83-48.23a11.32,11.32,0,0,1-.59-1.66c-3.17-12.62-11.89-19-25.91-19s-22.73,6.38-25.91,19a10.22,10.22,0,0,1-.58,1.66,68.14,68.14,0,0,1-8.27,13l-.24.31c-.11.15-.22.29-.34.43-12.53,15.88-31.65,31.08-36,34.49a7.22,7.22,0,0,1-.6.5c-36.58,27.84-58.42,74.45-58.42,124.63S165.72,383.2,202.3,411c.21.16.41.33.61.5,5.64,4.42,35.88,28.54,44.83,48.24a9.5,9.5,0,0,1,.58,1.65c3.18,12.61,11.9,19,25.91,19s22.74-6.4,25.91-19a10.44,10.44,0,0,1,.59-1.65c8.95-19.7,39.17-43.83,44.84-48.24a5.57,5.57,0,0,1,.59-.5c36.59-27.81,58.48-74.44,58.48-124.63S382.8,189.62,346.21,161.78ZM209.06,276.61l-6.25-6.26-6.25,6.26a9.8,9.8,0,1,1-13.85-13.86L189,256.5l-6.49-6.5a9.79,9.79,0,0,1,14.09-13.61l6.25,6.25,6.25-6.25a9.8,9.8,0,1,1,13.86,13.86l-6.26,6.25,6.26,6.25a9.8,9.8,0,1,1-13.86,13.86Zm109.15,55.57H230.26a9.8,9.8,0,0,1-9.8-9.8,53.77,53.77,0,0,1,107.54,0A9.8,9.8,0,0,1,318.21,332.18Zm33.69-55.57-6.25-6.26-6.24,6.26a9.8,9.8,0,0,1-13.87-13.86l6.26-6.24-6.26-6.24a9.8,9.8,0,1,1,13.87-13.86l6.24,6.25,6.25-6.25a9.8,9.8,0,0,1,13.86,13.86l-6.25,6.24,6.25,6.24a9.8,9.8,0,0,1-13.86,13.86Z"/><path class="cls-2" d="M313.16,92.38c-6.85-10.91-18-17.64-32.11-19.2a65,65,0,0,0-4.9-9.8c4.59-18.39,22.65-32.3,53.76-41.47C336.77,57.17,331.16,80.79,313.16,92.38Z"/><path class="cls-2" d="M260,74.56c-15.25,4-26,14.86-30.37,31.07a38.57,38.57,0,0,1-2.11,3.69c-17.14-5.66-30.14-23.52-38.77-53.27,23.6-4.46,42.18-3.32,55.31,3.41A38.29,38.29,0,0,1,260,74.56Z"/><path d="M328,322.38a9.8,9.8,0,0,1-9.8,9.8H230.26a9.8,9.8,0,0,1-9.79-9.8,53.77,53.77,0,0,1,107.54,0Z"/><path d="M365.76,276.6a9.79,9.79,0,0,1-13.85,0l-6.25-6.26-6.25,6.26a9.8,9.8,0,0,1-13.86-13.86l6.26-6.23-6.26-6.25a9.8,9.8,0,1,1,13.86-13.85l6.25,6.25,6.25-6.25a9.8,9.8,0,0,1,13.85,13.85l-6.25,6.25,6.25,6.23A9.78,9.78,0,0,1,365.76,276.6Z"/><path d="M222.93,276.61a9.81,9.81,0,0,1-13.86,0l-6.25-6.26-6.25,6.26a9.8,9.8,0,1,1-13.86-13.86L189,256.5l-6.49-6.5a9.8,9.8,0,1,1,14.1-13.6l6.25,6.25,6.25-6.25a9.8,9.8,0,1,1,13.86,13.85l-6.26,6.25,6.26,6.25A9.8,9.8,0,0,1,222.93,276.61Z"/></svg>